<svg width="29" height="29" viewBox="0 0 29 29" fill="none" xmlns="http://www.w3.org/2000/svg">
<path d="M13.6032 3.60035C13.97 2.85718 15.0298 2.85718 15.3966 3.60034L18.329 9.54098C18.4745 9.83583 18.7557 10.0403 19.0811 10.0878L25.6402 11.0466C26.4601 11.1664 26.7869 12.1742 26.1933 12.7524L21.4487 17.3736C21.2129 17.6033 21.1052 17.9345 21.1609 18.259L22.2804 24.7863C22.4205 25.6033 21.5629 26.2263 20.8293 25.8405L14.9654 22.7567C14.674 22.6034 14.3258 22.6034 14.0345 22.7567L8.17051 25.8405C7.43688 26.2263 6.57933 25.6033 6.71945 24.7863L7.83897 18.259C7.89463 17.9345 7.78696 17.6033 7.55109 17.3736L2.80653 12.7524C2.21294 12.1742 2.53972 11.1664 3.35963 11.0466L9.91876 10.0878C10.2441 10.0403 10.5253 9.83583 10.6708 9.54099L13.6032 3.60035Z" fill="#EAEAEC"/>
<path fill-rule="evenodd" clip-rule="evenodd" d="M15.3966 3.60034C15.0298 2.85718 13.97 2.85718 13.6032 3.60035L10.6708 9.54099C10.5253 9.83583 10.2441 10.0403 9.91876 10.0878L3.35963 11.0466C2.53972 11.1664 2.21294 12.1742 2.80653 12.7524L7.55109 17.3736C7.78696 17.6033 7.89463 17.9345 7.83897 18.259L6.71945 24.7863C6.57933 25.6033 7.43688 26.2263 8.17051 25.8405L14.0345 22.7567C14.3258 22.6034 14.674 22.6034 14.9654 22.7567L20.8293 25.8405C21.5629 26.2263 22.4205 25.6033 22.2804 24.7863L21.1609 18.259C21.1052 17.9345 21.2129 17.6033 21.4487 17.3736L26.1933 12.7524C26.7869 12.1742 26.4601 11.1664 25.6402 11.0466L19.0811 10.0878C18.7557 10.0403 18.4745 9.83583 18.329 9.54098L15.3966 3.60034Z" fill="#FF625F"/>
</svg>
