<svg width="41" height="41" viewBox="0 0 41 41" fill="none" xmlns="http://www.w3.org/2000/svg">
<path d="M19.2189 4.92906C19.7429 3.8674 21.2568 3.8674 21.7809 4.92906L25.97 13.4157C26.1779 13.8369 26.5796 14.129 27.0444 14.1969L36.4146 15.5665C37.5859 15.7377 38.0527 17.1775 37.2047 18.0034L30.4268 24.6052C30.0898 24.9334 29.936 25.4064 30.0155 25.87L31.6148 35.1948C31.815 36.3619 30.5899 37.2518 29.5419 36.7007L21.1648 32.2952C20.7486 32.0763 20.2512 32.0763 19.835 32.2952L11.4579 36.7007C10.4099 37.2518 9.18478 36.3619 9.38495 35.1948L10.9843 25.87C11.0638 25.4064 10.91 24.9334 10.573 24.6052L3.79506 18.0034C2.94707 17.1775 3.4139 15.7377 4.58521 15.5665L13.9554 14.1969C14.4202 14.129 14.8219 13.8369 15.0298 13.4157L19.2189 4.92906Z" fill="#EAEAEC"/>
<path fill-rule="evenodd" clip-rule="evenodd" d="M21.7809 4.92906C21.2568 3.8674 19.7429 3.8674 19.2189 4.92906L15.0298 13.4157C14.8219 13.8369 14.4202 14.129 13.9554 14.1969L4.58521 15.5665C3.4139 15.7377 2.94707 17.1775 3.79506 18.0034L10.573 24.6052C10.91 24.9334 11.0638 25.4064 10.9843 25.87L9.38495 35.1948C9.18478 36.3619 10.4099 37.2518 11.4579 36.7007L19.835 32.2952C20.2512 32.0763 20.7486 32.0763 21.1648 32.2952L29.5419 36.7007C30.5899 37.2518 31.815 36.3619 31.6148 35.1948L30.0155 25.87C29.936 25.4064 30.0898 24.9334 30.4268 24.6052L37.2047 18.0034C38.0527 17.1775 37.5859 15.7377 36.4146 15.5665L27.0444 14.1969C26.5796 14.129 26.1779 13.8369 25.97 13.4157L21.7809 4.92906Z" fill="#FF625F"/>
</svg>
