<svg width="29" height="28" viewBox="0 0 29 28" fill="none" xmlns="http://www.w3.org/2000/svg">
<g id="icon_tab">
<path id="Vector" d="M14 22.72C14 22.72 4.5 17.4 4.5 10.94C4.50019 9.79824 4.89582 8.69177 5.61962 7.80873C6.34342 6.92569 7.3507 6.32058 8.47023 6.09628C9.58975 5.87199 10.7524 6.04235 11.7605 6.5784C12.7686 7.11445 13.56 7.98311 14 9.03668L14 9.03669C14.44 7.98312 15.2314 7.11446 16.2395 6.5784C17.2476 6.04235 18.4102 5.87199 19.5298 6.09628C20.6493 6.32058 21.6566 6.92569 22.3804 7.80873C23.1042 8.69177 23.4998 9.79823 23.5 10.94C23.5 17.4 14 22.72 14 22.72Z" stroke="#1A1A1E" stroke-width="1.6" stroke-linecap="round" stroke-linejoin="round"/>
</g>
</svg>
