<svg width="28" height="28" viewBox="0 0 28 28" fill="none" xmlns="http://www.w3.org/2000/svg">
<g clip-path="url(#clip0_1134_19434)">
<path d="M22.1466 5.10355H19.6313V4.21856C19.6313 3.80868 19.296 3.47331 18.8861 3.47331C18.4762 3.47331 18.1408 3.80868 18.1408 4.21856V5.10355H9.8499V4.21856C9.8499 3.80868 9.51453 3.47331 9.10464 3.47331C8.69476 3.47331 8.35939 3.80868 8.35939 4.21856V5.10355H5.84417C4.98713 5.10355 4.28845 5.80222 4.28845 6.65926V22.9616C4.28845 23.8187 4.98713 24.5174 5.84417 24.5174H22.1466C23.0036 24.5174 23.7023 23.8187 23.7023 22.9616V6.65926C23.7023 5.80222 23.0036 5.10355 22.1466 5.10355ZM11.3497 9.99427C12.5514 9.99427 13.5203 10.9724 13.5203 12.1648C13.5203 13.3572 12.5421 14.3354 11.3497 14.3354C10.1573 14.3354 9.17917 13.3572 9.17917 12.1648C9.17917 10.9724 10.1573 9.99427 11.3497 9.99427ZM10.3343 19.2261C10.148 19.2261 9.95237 19.1515 9.80332 19.0118C9.51453 18.723 9.51453 18.2479 9.80332 17.9591L17.1441 10.6184C17.4328 10.3296 17.9079 10.3296 18.1967 10.6184C18.4855 10.9072 18.4855 11.3823 18.1967 11.6711L10.856 19.0118C10.7069 19.1609 10.5206 19.2261 10.325 19.2261H10.3343ZM16.6503 19.636C15.4486 19.636 14.4798 18.6578 14.4798 17.4654C14.4798 16.273 15.4579 15.2949 16.6503 15.2949C17.8427 15.2949 18.8209 16.273 18.8209 17.4654C18.8209 18.6578 17.8427 19.636 16.6503 19.636Z" fill="#1A1A1E"/>
<path d="M16.6265 18.1916C17.0407 18.1916 17.3765 17.8558 17.3765 17.4416C17.3765 17.0274 17.0407 16.6916 16.6265 16.6916C16.2123 16.6916 15.8765 17.0274 15.8765 17.4416C15.8765 17.8558 16.2123 18.1916 16.6265 18.1916Z" fill="#1A1A1E"/>
<path d="M11.3884 12.891C11.8026 12.891 12.1384 12.5552 12.1384 12.141C12.1384 11.7268 11.8026 11.391 11.3884 11.391C10.9742 11.391 10.6384 11.7268 10.6384 12.141C10.6384 12.5552 10.9742 12.891 11.3884 12.891Z" fill="#1A1A1E"/>
</g>
<defs>
<clipPath id="clip0_1134_19434">
<rect width="19.4231" height="21.0534" fill="white" transform="translate(4.28845 3.47331)"/>
</clipPath>
</defs>
</svg>
