<svg width="28" height="29" viewBox="0 0 28 29" fill="none" xmlns="http://www.w3.org/2000/svg">
<g clip-path="url(#clip0_1211_1641)">
<path d="M22.1467 5.6035H19.6315V4.71852C19.6315 4.30863 19.2961 3.97327 18.8862 3.97327C18.4763 3.97327 18.141 4.30863 18.141 4.71852V5.6035H9.85002V4.71852C9.85002 4.30863 9.51466 3.97327 9.10477 3.97327C8.69488 3.97327 8.35951 4.30863 8.35951 4.71852V5.6035H5.84429C4.98725 5.6035 4.28857 6.30218 4.28857 7.15922V23.4616C4.28857 24.3186 4.98725 25.0173 5.84429 25.0173H22.1467C23.0037 25.0173 23.7024 24.3186 23.7024 23.4616V7.15922C23.7024 6.30218 23.0037 5.6035 22.1467 5.6035ZM11.3498 10.4942C12.5516 10.4942 13.5204 11.4724 13.5204 12.6648C13.5204 13.8572 12.5422 14.8353 11.3498 14.8353C10.1574 14.8353 9.17929 13.8572 9.17929 12.6648C9.17929 11.4724 10.1574 10.4942 11.3498 10.4942ZM10.3344 19.726C10.1481 19.726 9.95249 19.6515 9.80344 19.5118C9.51466 19.223 9.51466 18.7479 9.80344 18.4591L17.1442 11.1184C17.433 10.8296 17.9081 10.8296 18.1968 11.1184C18.4856 11.4072 18.4856 11.8823 18.1968 12.171L10.8561 19.5118C10.7071 19.6608 10.5207 19.726 10.3251 19.726H10.3344ZM16.6504 20.1359C15.4487 20.1359 14.4799 19.1578 14.4799 17.9654C14.4799 16.773 15.458 15.7948 16.6504 15.7948C17.8428 15.7948 18.821 16.773 18.821 17.9654C18.821 19.1578 17.8428 20.1359 16.6504 20.1359Z" fill="#1A1A1E"/>
<path d="M16.6265 18.6916C17.0407 18.6916 17.3765 18.3559 17.3765 17.9417C17.3765 17.5274 17.0407 17.1917 16.6265 17.1917C16.2123 17.1917 15.8765 17.5274 15.8765 17.9417C15.8765 18.3559 16.2123 18.6916 16.6265 18.6916Z" fill="#1A1A1E"/>
<path d="M11.3887 13.391C11.8029 13.391 12.1387 13.0552 12.1387 12.641C12.1387 12.2268 11.8029 11.891 11.3887 11.891C10.9745 11.891 10.6387 12.2268 10.6387 12.641C10.6387 13.0552 10.9745 13.391 11.3887 13.391Z" fill="#1A1A1E"/>
</g>
<defs>
<clipPath id="clip0_1211_1641">
<rect width="19.4231" height="21.0534" fill="white" transform="translate(4.28857 3.97327)"/>
</clipPath>
</defs>
</svg>
