<svg width="17" height="16" viewBox="0 0 17 16" fill="none" xmlns="http://www.w3.org/2000/svg">
<g id="icon_review">
<path id="Vector" d="M7.98765 1.77163C8.19727 1.34696 8.80284 1.34696 9.01246 1.77163L10.6881 5.16628C10.7713 5.33476 10.9319 5.4516 11.1179 5.47877L14.8659 6.02661C15.3344 6.09509 15.5212 6.671 15.182 7.00138L12.4708 9.64206C12.336 9.77334 12.2745 9.96256 12.3063 10.148L12.946 13.8779C13.0261 14.3447 12.5361 14.7007 12.1168 14.4803L8.76602 12.7181C8.59952 12.6305 8.40059 12.6305 8.23408 12.7181L4.88326 14.4803C4.46404 14.7007 3.97401 14.3447 4.05408 13.8779L4.6938 10.148C4.72561 9.96256 4.66408 9.77334 4.5293 9.64206L1.81812 7.00138C1.47893 6.671 1.66566 6.09509 2.13418 6.02661L5.88225 5.47877C6.06817 5.4516 6.22885 5.33476 6.31201 5.16628L7.98765 1.77163Z" fill="#EAEAEC"/>
<path id="Intersect" fill-rule="evenodd" clip-rule="evenodd" d="M9.01246 1.77163C8.80284 1.34696 8.19727 1.34696 7.98765 1.77163L6.31201 5.16628C6.22885 5.33476 6.06817 5.4516 5.88225 5.47877L2.13418 6.02661C1.66566 6.09509 1.47893 6.671 1.81812 7.00138L4.5293 9.64206C4.66408 9.77334 4.72561 9.96256 4.6938 10.148L4.05408 13.8779C3.97401 14.3447 4.46404 14.7007 4.88326 14.4803L8.23408 12.7181C8.40059 12.6305 8.59952 12.6305 8.76602 12.7181L12.1168 14.4803C12.5361 14.7007 13.0261 14.3447 12.946 13.8779L12.3063 10.148C12.2745 9.96256 12.336 9.77334 12.4708 9.64206L15.182 7.00138C15.5212 6.671 15.3344 6.09509 14.8659 6.02661L11.1179 5.47877C10.9319 5.4516 10.7713 5.33476 10.6881 5.16628L9.01246 1.77163Z" fill="#FF625F"/>
</g>
</svg>
