<svg width="28" height="28" viewBox="0 0 28 28" fill="none" xmlns="http://www.w3.org/2000/svg">
<g clip-path="url(#clip0_1750_12322)">
<path d="M21.4992 15.975C20.1892 15.975 18.9492 15.525 17.9992 14.705C17.0492 15.525 15.8092 15.975 14.4992 15.975C13.1892 15.975 11.9492 15.525 10.9992 14.705C10.0492 15.525 8.80922 15.975 7.49922 15.975C6.58922 15.975 5.71922 15.745 4.94922 15.335V21.905C4.94922 22.485 5.06922 23.055 5.28922 23.485C5.58922 24.085 6.07922 24.425 6.61922 24.425H22.3692C22.9092 24.425 23.3992 24.085 23.6992 23.485C23.9192 23.045 24.0392 22.485 24.0392 21.905V15.335C23.2692 15.745 22.3992 15.975 21.4892 15.975H21.4992ZM16.6992 22.825H12.2992V20.625C12.2992 19.415 13.2892 18.425 14.4992 18.425C15.7092 18.425 16.6992 19.415 16.6992 20.625V22.825Z" fill="#1A1A1E"/>
<path d="M24.6908 8.81501L23.4308 4.93501C23.3208 4.60501 23.0208 4.38501 22.6708 4.38501H18.8008V13.035C18.8008 13.175 18.8508 13.305 18.9508 13.405C19.6208 14.035 20.5608 14.345 21.5008 14.345C22.4408 14.345 23.3208 14.055 23.9708 13.475C24.6308 12.895 25.0008 12.125 25.0008 11.295V10.745C25.0008 10.095 24.9008 9.44501 24.6908 8.81501Z" fill="#1A1A1E"/>
<path d="M10.21 4.375H6.41C6.07 4.375 5.76 4.585 5.65 4.915L4.31 8.815C4.11 9.445 4 10.095 4 10.745V11.295C4 12.115 4.36 12.885 5.03 13.475C5.69 14.055 6.6 14.345 7.51 14.345C8.42 14.345 9.41 14.025 10.06 13.395C10.16 13.305 10.21 13.165 10.21 13.035V4.375Z" fill="#1A1A1E"/>
<path d="M17.2008 4.375H11.8008V13.025C11.8008 13.165 11.8508 13.295 11.9508 13.395C12.6208 14.025 13.5608 14.335 14.5008 14.335C15.4408 14.335 16.4008 14.015 17.0508 13.385C17.1508 13.295 17.2008 13.155 17.2008 13.025V4.375Z" fill="#1A1A1E"/>
</g>
<defs>
<clipPath id="clip0_1750_12322">
<rect width="21" height="20.05" fill="white" transform="translate(4 4.375)"/>
</clipPath>
</defs>
</svg>
