<svg width="28" height="28" viewBox="0 0 28 28" fill="none" xmlns="http://www.w3.org/2000/svg">
<path d="M14.4802 13.3137C16.868 13.3137 18.8037 11.378 18.8037 8.99022C18.8037 6.6024 16.868 4.66669 14.4802 4.66669C12.0924 4.66669 10.1567 6.6024 10.1567 8.99022C10.1567 11.378 12.0924 13.3137 14.4802 13.3137Z" stroke="#1A1A1E" stroke-width="1.6" stroke-linecap="round" stroke-linejoin="round"/>
<path d="M23.1273 20.88V22.0418L23.1265 22.0652C23.1082 22.604 22.6661 23.0312 22.1271 23.0312H6.82268C6.27624 23.0312 5.83325 22.5883 5.83325 22.0418V20.88C5.83325 19.7334 6.28877 18.6337 7.09959 17.8229C7.9104 17.012 9.01011 16.5565 10.1567 16.5565H18.8038C19.9505 16.5565 21.0502 17.012 21.861 17.8229C22.6718 18.6337 23.1273 19.7334 23.1273 20.88Z" stroke="#1A1A1E" stroke-width="1.6" stroke-linecap="round" stroke-linejoin="round"/>
</svg>
