<svg width="28" height="29" viewBox="0 0 28 29" fill="none" xmlns="http://www.w3.org/2000/svg">
<path d="M14.4803 13.8137C16.8681 13.8137 18.8038 11.878 18.8038 9.49016C18.8038 7.10234 16.8681 5.16663 14.4803 5.16663C12.0924 5.16663 10.1567 7.10234 10.1567 9.49016C10.1567 11.878 12.0924 13.8137 14.4803 13.8137Z" stroke="#1A1A1E" stroke-width="1.6" stroke-linecap="round" stroke-linejoin="round"/>
<path d="M22.1274 23.5417C22.6797 23.5417 23.1274 23.094 23.1274 22.5417V21.3799C23.1274 20.2333 22.6719 19.1335 21.861 18.3227C21.0502 17.5119 19.9505 17.0564 18.8038 17.0564H10.1568C9.01011 17.0564 7.9104 17.5119 7.09958 18.3227C6.28877 19.1335 5.83325 20.2333 5.83325 21.3799V22.5417" stroke="#1A1A1E" stroke-width="1.6" stroke-linecap="round" stroke-linejoin="round"/>
</svg>
