<svg width="62" height="26" viewBox="0 0 62 26" fill="none" xmlns="http://www.w3.org/2000/svg">
<rect width="62" height="26" rx="13" fill="#F7F7F9"/>
<path d="M17.3356 7.49448V14.1202H16.2831V11.1865H15.0649V13.7555H14.0249V7.69751H15.0649V10.2707H16.2831V7.49448H17.3356ZM8.33149 9.57459V8.69613H10.4448V7.57735H11.547V8.69613H13.6395V9.57459H8.33149ZM8.74171 11.8743C8.73757 10.7762 9.67403 10.0635 10.9917 10.0635C12.3301 10.0635 13.2583 10.7762 13.2666 11.8743C13.2583 12.9599 12.3301 13.6685 10.9917 13.6685C9.67403 13.6685 8.73757 12.9599 8.74171 11.8743ZM9.73204 11.8743C9.73204 12.4669 10.2459 12.8605 10.9917 12.8564C11.7459 12.8605 12.2555 12.4669 12.2597 11.8743C12.2555 11.2693 11.7459 10.8798 10.9917 10.8798C10.2459 10.8798 9.73204 11.2693 9.73204 11.8743ZM10.2666 16.134C10.2583 14.9448 11.6008 14.2735 13.8301 14.2735C16.0552 14.2735 17.3936 14.9448 17.3936 16.134C17.3936 17.3066 16.0552 17.9779 13.8301 17.9779C11.6008 17.9779 10.2583 17.3066 10.2666 16.134ZM11.3729 16.134C11.3646 16.768 12.2638 17.1285 13.8301 17.1202C15.3923 17.1285 16.279 16.768 16.2831 16.134C16.279 15.471 15.3923 15.1188 13.8301 15.1271C12.2638 15.1188 11.3646 15.471 11.3729 16.134ZM22.6867 10.1671C22.6784 12.0235 23.7641 13.9254 25.3221 14.6878L24.6384 15.5787C23.4906 14.9862 22.6038 13.8094 22.1439 12.4088C21.6757 13.9006 20.7558 15.1561 19.5624 15.7776L18.8704 14.8826C20.4823 14.1036 21.5721 12.0939 21.5804 10.1671V8.36878H22.6867V10.1671ZM26.1135 17.9945V7.49448H27.2282V11.6837H28.9105V12.6326H27.2282V17.9945H26.1135ZM36.5386 9.1768C36.5386 10.5525 37.5083 11.8329 39.0745 12.3467L38.482 13.221C37.3301 12.8149 36.4682 11.9986 36.0083 10.9627C35.5566 12.1395 34.6657 13.0635 33.4433 13.5152L32.8425 12.6326C34.4792 12.0483 35.4281 10.6436 35.4364 9.08149V8.04144H36.5386V9.1768ZM34.2596 16.0221C34.2596 14.7997 35.6022 14.0787 37.7817 14.0787C39.9447 14.0787 41.2707 14.7997 41.2707 16.0221C41.2707 17.2693 39.9447 17.9779 37.7817 17.9779C35.6022 17.9779 34.2596 17.2693 34.2596 16.0221ZM35.3743 16.0221C35.366 16.7182 36.2652 17.0953 37.7817 17.1036C39.2942 17.0953 40.1809 16.7182 40.1809 16.0221C40.1809 15.355 39.2942 14.9613 37.7817 14.9613C36.2652 14.9613 35.366 15.355 35.3743 16.0221ZM40.0607 13.8301V7.49448H41.1754V10.1381H42.6961V11.0663H41.1754V13.8301H40.0607ZM53.1563 12.5207V13.4157H48.9132V14.5428H51.9878V17.8619H44.7323V14.5428H47.8151V13.4157H43.5845V12.5207H53.1563ZM44.4588 8.72099V7.81768H52.2571V8.72099H50.7281V10.7265H52.2115V11.634H44.5044V10.7265H45.9919V8.72099H44.4588ZM45.8303 16.9586H50.9063V15.4171H45.8303V16.9586ZM47.0983 10.7265H49.6135V8.72099H47.0983V10.7265Z" fill="#3DDE8F"/>
</svg>
