<svg width="17" height="16" viewBox="0 0 17 16" fill="none" xmlns="http://www.w3.org/2000/svg">
<g id="icon_thumbsDown_unfilled">
<path id="Vector" d="M11.7274 1.33374H13.5074C13.8847 1.32706 14.2513 1.45916 14.5377 1.70495C14.824 1.95074 15.0101 2.29311 15.0607 2.66707V7.33374C15.0101 7.7077 14.824 8.05007 14.5377 8.29586C14.2513 8.54165 13.8847 8.67374 13.5074 8.66707H11.7274M7.06073 10.0004V12.6671C7.06073 13.1975 7.27144 13.7062 7.64652 14.0813C8.02159 14.4564 8.5303 14.6671 9.06073 14.6671L11.7274 8.66707V1.33374H4.2074C3.88584 1.3301 3.57381 1.4428 3.32879 1.65107C3.08377 1.85933 2.92228 2.14913 2.87406 2.46707L1.95406 8.46707C1.92506 8.65817 1.93795 8.85328 1.99184 9.0389C2.04573 9.22452 2.13933 9.39621 2.26616 9.54206C2.39299 9.68791 2.55001 9.80445 2.72635 9.88359C2.90269 9.96273 3.09412 10.0026 3.2874 10.0004H7.06073Z" stroke="#B3B3B6" stroke-width="1.2" stroke-linecap="round" stroke-linejoin="round"/>
</g>
</svg>
