<svg width="24" height="24" viewBox="0 0 24 24" fill="none" xmlns="http://www.w3.org/2000/svg">
<path d="M12 20C12 20 2.90909 14.9091 2.90909 8.72728C2.90927 7.63467 3.28786 6.57585 3.98049 5.73084C4.67312 4.88582 5.63703 4.30677 6.70835 4.09214C7.77966 3.8775 8.89225 4.04052 9.85695 4.55349C10.8217 5.06646 11.5789 5.89771 12 6.90591L12 6.90592C12.4211 5.89772 13.1783 5.06647 14.143 4.55349C15.1077 4.04052 16.2203 3.8775 17.2916 4.09214C18.363 4.30677 19.3269 4.88582 20.0195 5.73084C20.7121 6.57585 21.0907 7.63467 21.0909 8.72728C21.0909 14.9091 12 20 12 20Z" stroke="#CDCDCF" stroke-width="2" stroke-linecap="round" stroke-linejoin="round"/>
</svg>
