<svg width="73" height="26" viewBox="0 0 73 26" fill="none" xmlns="http://www.w3.org/2000/svg">
<rect width="73" height="26" rx="13" fill="#F7F7F9"/>
<path d="M14.0497 8.55939C14.0414 11.6588 13.018 14.4392 9.16436 16.3246L8.56354 15.4544C10.453 14.5387 11.6215 13.4075 12.2762 12.0691L8.77901 12.3923L8.6174 11.4227L12.6326 11.1699C12.7983 10.6312 12.8978 10.0635 12.9434 9.46685H9.15193V8.55939H14.0497ZM15.9972 17.9945V7.49448H17.116V17.9945H15.9972ZM27.829 7.50276V17.9986H26.6936V15.4917H24.3773V14.6423H26.6936V7.50276H27.829ZM18.9989 12.9641C20.9878 12.9599 23.6356 12.9475 25.9312 12.6285L25.9975 13.453C24.9947 13.6229 23.963 13.7265 22.9519 13.7928V17.6754H21.8373V13.8467C20.8759 13.884 19.9602 13.8881 19.148 13.8881L18.9989 12.9641ZM19.7779 10.0801C19.7779 8.8453 20.8759 7.98757 22.4547 7.98757C24.0085 7.98757 25.119 8.8453 25.119 10.0801C25.119 11.3481 24.0085 12.1685 22.4547 12.1768C20.8759 12.1685 19.7779 11.3481 19.7779 10.0801ZM20.8262 10.0801C20.8221 10.8384 21.4892 11.3191 22.4547 11.3191C23.3911 11.3191 24.0583 10.8384 24.0666 10.0801C24.0583 9.34668 23.3911 8.84945 22.4547 8.8453C21.4851 8.84945 20.8221 9.34668 20.8262 10.0801ZM38.2105 12.4793V13.3867H30.9011V8.43923H38.1193V9.35083H31.9991V12.4793H38.2105ZM29.7077 16.6105V15.6865H39.3168V16.6105H29.7077ZM51.8345 7.49448V9.69061H53.3552V10.6146H51.8345V12.8066H50.7198V7.49448H51.8345ZM43.7419 10.2044C43.7336 8.8163 44.9104 7.86326 46.5016 7.85497C48.0928 7.86326 49.2571 8.8163 49.2571 10.2044C49.2571 11.5801 48.0928 12.5456 46.5016 12.5456C44.9104 12.5456 43.7336 11.5801 43.7419 10.2044ZM44.8276 10.2044C44.8193 11.0622 45.532 11.6547 46.5016 11.6547C47.4629 11.6547 48.1756 11.0622 48.1756 10.2044C48.1756 9.35083 47.4629 8.77072 46.5016 8.77486C45.532 8.77072 44.8193 9.35083 44.8276 10.2044ZM45.043 14.1575V13.279H51.8345V15.9392H46.1618V16.971H52.1908V17.8619H45.0679V15.1146H50.7281V14.1575H45.043ZM62.9535 7.50276V13.7265H61.8389V7.50276H62.9535ZM54.774 9.01519V8.12845H59.5972V11.0746H55.8803V12.3467C57.7201 12.3508 59.0668 12.297 60.6621 12.0359L60.803 12.9434C59.0875 13.2127 57.6579 13.2666 55.669 13.2666H54.7947V10.2127H58.4949V9.01519H54.774ZM56.0502 17.8619V14.2569H62.9535V17.8619H56.0502ZM57.1483 16.9586H61.8596V15.1519H57.1483V16.9586Z" fill="#29BFFF"/>
</svg>
