<svg width="73" height="26" viewBox="0 0 73 26" fill="none" xmlns="http://www.w3.org/2000/svg">
<rect width="73" height="26" rx="13" fill="#F7F7F9"/>
<path d="M11.9844 10.8711C11.9844 12.4883 12.9746 14.1992 14.5391 14.9492L13.9062 15.793C12.7637 15.2539 11.9023 14.1582 11.457 12.875C10.9941 14.2637 10.0801 15.4238 8.87891 15.9805L8.25781 15.125C9.85742 14.3926 10.8887 12.5996 10.8945 10.8711V10.1797H8.57422V9.28906H10.8828V7.70703H12.0078V9.28906H14.293V10.1797H11.9844V10.8711ZM15.4531 17.9961V7.49609H16.5664V11.7266H18.2539V12.6641H16.5664V17.9961H15.4531ZM27.788 7.49609V12.957H26.6864V11.7031H24.3896V12.5703H19.5497V7.97656H20.663V9.39453H23.288V7.97656H24.3896V8.9375H26.6864V7.49609H27.788ZM20.663 11.6797H23.288V10.25H20.663V11.6797ZM20.9208 14.293V13.4258H27.788V16.0039H22.0575V16.9766H28.163V17.8672H20.9443V15.1719H26.6864V14.293H20.9208ZM24.3896 10.8477H26.6864V9.79297H24.3896V10.8477ZM37.9315 7.49609V11.8906H39.5135V12.8281H37.9315V17.9961H36.8182V7.49609H37.9315ZM29.576 15.1367C30.4022 15.1367 31.3631 15.1367 32.3651 15.1074V14.041C31.1815 13.8652 30.408 13.1504 30.4198 12.1367C30.408 10.9531 31.4334 10.1738 32.9276 10.168C34.4158 10.1738 35.453 10.9531 35.4588 12.1367C35.453 13.1504 34.6678 13.8711 33.4783 14.041V15.0664C34.41 15.0195 35.3475 14.9434 36.2205 14.8203L36.2908 15.6406C34.0174 16.0449 31.5623 16.0684 29.7518 16.0625L29.576 15.1367ZM29.7752 9.62891V8.73828H32.3651V7.51953H33.4783V8.73828H36.0682V9.62891H29.7752ZM31.4627 12.1367C31.4627 12.8047 32.0487 13.2207 32.9276 13.2148C33.8065 13.2207 34.3865 12.8047 34.3924 12.1367C34.3865 11.4629 33.8065 11.0352 32.9276 11.0352C32.0487 11.0352 31.4627 11.4629 31.4627 12.1367ZM47.2028 9.17188C47.1969 10.5488 48.1696 11.832 49.734 12.3477L49.1364 13.2266C47.9879 12.8223 47.1266 12.002 46.6696 10.9648C46.2125 12.1426 45.3219 13.0684 44.0973 13.5195L43.4997 12.6289C45.1403 12.0488 46.0895 10.6484 46.1012 9.07812V8.04688H47.2028V9.17188ZM44.9176 16.0273C44.9176 14.7969 46.2594 14.0762 48.445 14.082C50.6012 14.0762 51.9254 14.7969 51.9254 16.0273C51.9254 17.2695 50.6012 17.9785 48.445 17.9727C46.2594 17.9785 44.9176 17.2695 44.9176 16.0273ZM46.0309 16.0273C46.025 16.7188 46.9274 17.0938 48.445 17.1055C49.9508 17.0938 50.8415 16.7188 50.8356 16.0273C50.8415 15.3594 49.9508 14.9609 48.445 14.9609C46.9274 14.9609 46.025 15.3594 46.0309 16.0273ZM50.7184 13.8359V7.49609H51.8317V10.1328H53.3551V11.0703H51.8317V13.8359H50.7184ZM63.815 12.5234V13.4141H59.5728V14.5391H62.6431V17.8672H55.3892V14.5391H58.4712V13.4141H54.2408V12.5234H63.815ZM55.1197 8.72656V7.82422H62.9127V8.72656H61.3892V10.7305H62.8658V11.6328H55.1666V10.7305H56.6548V8.72656H55.1197ZM56.4908 16.9648H61.565V15.418H56.4908V16.9648ZM57.7564 10.7305H60.2759V8.72656H57.7564V10.7305Z" fill="#FF625F"/>
</svg>
