<svg width="28" height="28" viewBox="0 0 28 28" fill="none" xmlns="http://www.w3.org/2000/svg">
<path d="M14.4817 13.3138C16.8695 13.3138 18.8052 11.3781 18.8052 8.99028C18.8052 6.60246 16.8695 4.66675 14.4817 4.66675C12.0939 4.66675 10.1582 6.60246 10.1582 8.99028C10.1582 11.3781 12.0939 13.3138 14.4817 13.3138Z" stroke="#1A1A1E" stroke-width="1.6" stroke-linecap="round" stroke-linejoin="round"/>
<path d="M23.1281 20.8801V22.0419L23.1273 22.0653C23.109 22.6041 22.6669 23.0313 22.1279 23.0313H6.82341C6.27697 23.0313 5.83398 22.5884 5.83398 22.0419V20.8801C5.83398 19.7335 6.2895 18.6338 7.10032 17.823C7.91113 17.0121 9.01084 16.5566 10.1575 16.5566H18.8046C19.9513 16.5566 21.051 17.0121 21.8618 17.823C22.6726 18.6338 23.1281 19.7335 23.1281 20.8801Z" stroke="#1A1A1E" stroke-width="1.6" stroke-linecap="round" stroke-linejoin="round"/>
</svg>
