<svg width="28" height="29" viewBox="0 0 28 29" fill="none" xmlns="http://www.w3.org/2000/svg">
<path d="M22.1512 6.34875H5.84881C5.39863 6.34875 5.03369 6.7137 5.03369 7.16387V23.4663C5.03369 23.9164 5.39863 24.2814 5.84881 24.2814H22.1512C22.6014 24.2814 22.9663 23.9164 22.9663 23.4663V7.16387C22.9663 6.7137 22.6014 6.34875 22.1512 6.34875Z" stroke="#1A1A1E" stroke-width="1.4905" stroke-linecap="round" stroke-linejoin="round"/>
<path d="M18.8906 4.71851V5.80533" stroke="#1A1A1E" stroke-width="1.4905" stroke-linecap="round" stroke-linejoin="round"/>
<path d="M9.10938 4.71851V5.80533" stroke="#1A1A1E" stroke-width="1.4905" stroke-linecap="round" stroke-linejoin="round"/>
<path d="M17.6681 11.647L10.332 18.983" stroke="#1A1A1E" stroke-width="1.4905" stroke-linecap="round" stroke-linejoin="round"/>
<path d="M11.3508 14.0923C12.1386 14.0923 12.7772 13.4536 12.7772 12.6658C12.7772 11.878 12.1386 11.2394 11.3508 11.2394C10.563 11.2394 9.92432 11.878 9.92432 12.6658C9.92432 13.4536 10.563 14.0923 11.3508 14.0923Z" stroke="#1A1A1E" stroke-width="1.4905" stroke-miterlimit="10"/>
<path d="M16.6491 19.3906C17.4369 19.3906 18.0756 18.752 18.0756 17.9642C18.0756 17.1764 17.4369 16.5377 16.6491 16.5377C15.8613 16.5377 15.2227 17.1764 15.2227 17.9642C15.2227 18.752 15.8613 19.3906 16.6491 19.3906Z" stroke="#1A1A1E" stroke-width="1.4905" stroke-miterlimit="10"/>
</svg>
