<svg width="28" height="28" viewBox="0 0 28 28" fill="none" xmlns="http://www.w3.org/2000/svg">
<path d="M22.1512 5.84879H5.84881C5.39863 5.84879 5.03369 6.21373 5.03369 6.6639V22.9663C5.03369 23.4165 5.39863 23.7814 5.84881 23.7814H22.1512C22.6014 23.7814 22.9663 23.4165 22.9663 22.9663V6.6639C22.9663 6.21373 22.6014 5.84879 22.1512 5.84879Z" stroke="#1A1A1E" stroke-width="1.4905" stroke-linecap="round" stroke-linejoin="round"/>
<path d="M18.8906 4.21855V5.30538" stroke="#1A1A1E" stroke-width="1.4905" stroke-linecap="round" stroke-linejoin="round"/>
<path d="M9.10938 4.21855V5.30538" stroke="#1A1A1E" stroke-width="1.4905" stroke-linecap="round" stroke-linejoin="round"/>
<path d="M17.6681 11.1471L10.332 18.4831" stroke="#1A1A1E" stroke-width="1.4905" stroke-linecap="round" stroke-linejoin="round"/>
<path d="M11.3508 13.5924C12.1386 13.5924 12.7772 12.9538 12.7772 12.166C12.7772 11.3781 12.1386 10.7395 11.3508 10.7395C10.563 10.7395 9.92432 11.3781 9.92432 12.166C9.92432 12.9538 10.563 13.5924 11.3508 13.5924Z" stroke="#1A1A1E" stroke-width="1.4905" stroke-miterlimit="10"/>
<path d="M16.6491 18.8907C17.4369 18.8907 18.0756 18.2521 18.0756 17.4642C18.0756 16.6764 17.4369 16.0378 16.6491 16.0378C15.8613 16.0378 15.2227 16.6764 15.2227 17.4642C15.2227 18.2521 15.8613 18.8907 16.6491 18.8907Z" stroke="#1A1A1E" stroke-width="1.4905" stroke-miterlimit="10"/>
</svg>
