<svg width="29" height="29" viewBox="0 0 29 29" fill="none" xmlns="http://www.w3.org/2000/svg">
<path d="M13.6032 3.81663C13.97 3.07346 15.0298 3.07346 15.3966 3.81663L18.329 9.75727C18.4745 10.0521 18.7557 10.2566 19.081 10.3041L25.6402 11.2628C26.4601 11.3827 26.7869 12.3905 26.1933 12.9687L21.4487 17.5899C21.2128 17.8196 21.1052 18.1508 21.1608 18.4753L22.2803 25.0026C22.4205 25.8196 21.5629 26.4426 20.8293 26.0567L14.9653 22.973C14.674 22.8197 14.3258 22.8197 14.0344 22.973L8.1705 26.0567C7.43687 26.4426 6.57932 25.8196 6.71944 25.0026L7.83895 18.4753C7.89461 18.1508 7.78695 17.8196 7.55107 17.5899L2.80651 12.9687C2.21292 12.3905 2.5397 11.3827 3.35962 11.2628L9.91875 10.3041C10.2441 10.2566 10.5253 10.0521 10.6708 9.75727L13.6032 3.81663Z" fill="#EAEAEC"/>
</svg>
