<svg width="41" height="41" viewBox="0 0 41 41" fill="none" xmlns="http://www.w3.org/2000/svg">
<path d="M19.6032 4.45945C19.97 3.71629 21.0298 3.71628 21.3966 4.45945L26.0696 13.9265C26.2151 14.2213 26.4963 14.4258 26.8217 14.4733L37.2733 16.001C38.0932 16.1208 38.42 17.1287 37.8264 17.7068L30.2653 25.0714C30.0294 25.3011 29.9217 25.6323 29.9774 25.9568L31.7616 36.3597C31.9018 37.1767 31.0442 37.7997 30.3106 37.4139L20.9653 32.4993C20.674 32.3461 20.3258 32.3461 20.0344 32.4993L10.6892 37.4139C9.95556 37.7997 9.09801 37.1767 9.23813 36.3597L11.0224 25.9568C11.078 25.6323 10.9704 25.3011 10.7345 25.0714L3.17334 17.7068C2.57974 17.1287 2.90653 16.1208 3.72644 16.001L14.1781 14.4733C14.5034 14.4258 14.7846 14.2213 14.9302 13.9265L19.6032 4.45945Z" fill="#EAEAEC"/>
</svg>
