<svg width="193" height="95" viewBox="0 0 193 95" fill="none" xmlns="http://www.w3.org/2000/svg">
<path d="M26.1303 18.96C26.1303 20.5867 25.757 22.08 25.0103 23.44C24.2636 24.7733 23.117 25.8533 21.5703 26.68C20.0236 27.5067 18.1036 27.92 15.8103 27.92H11.5703V38H4.73031V9.92H15.8103C18.0503 9.92 19.9436 10.3067 21.4903 11.08C23.037 11.8533 24.197 12.92 24.9703 14.28C25.7436 15.64 26.1303 17.2 26.1303 18.96ZM15.2903 22.48C16.597 22.48 17.5703 22.1733 18.2103 21.56C18.8503 20.9467 19.1703 20.08 19.1703 18.96C19.1703 17.84 18.8503 16.9733 18.2103 16.36C17.5703 15.7467 16.597 15.44 15.2903 15.44H11.5703V22.48H15.2903ZM52.0113 15.68L38.0113 48.6H30.6513L35.7713 37.24L26.6913 15.68H34.3313L39.4913 29.64L44.6113 15.68H52.0113ZM64.1647 38.32C61.978 38.32 60.0047 37.8533 58.2447 36.92C56.5114 35.9867 55.138 34.6533 54.1247 32.92C53.138 31.1867 52.6447 29.16 52.6447 26.84C52.6447 24.5467 53.1514 22.5333 54.1647 20.8C55.178 19.04 56.5647 17.6933 58.3247 16.76C60.0847 15.8267 62.058 15.36 64.2447 15.36C66.4314 15.36 68.4047 15.8267 70.1647 16.76C71.9247 17.6933 73.3114 19.04 74.3247 20.8C75.338 22.5333 75.8447 24.5467 75.8447 26.84C75.8447 29.1333 75.3247 31.16 74.2847 32.92C73.2714 34.6533 71.8714 35.9867 70.0847 36.92C68.3247 37.8533 66.3514 38.32 64.1647 38.32ZM64.1647 32.4C65.4714 32.4 66.578 31.92 67.4847 30.96C68.418 30 68.8847 28.6267 68.8847 26.84C68.8847 25.0533 68.4314 23.68 67.5247 22.72C66.6447 21.76 65.5514 21.28 64.2447 21.28C62.9114 21.28 61.8047 21.76 60.9247 22.72C60.0447 23.6533 59.6047 25.0267 59.6047 26.84C59.6047 28.6267 60.0314 30 60.8847 30.96C61.7647 31.92 62.858 32.4 64.1647 32.4ZM92.5934 15.44C95.2068 15.44 97.2868 16.2933 98.8334 18C100.407 19.68 101.193 22 101.193 24.96V38H94.3934V25.88C94.3934 24.3867 94.0068 23.2267 93.2334 22.4C92.4601 21.5733 91.4201 21.16 90.1134 21.16C88.8068 21.16 87.7668 21.5733 86.9934 22.4C86.2201 23.2267 85.8334 24.3867 85.8334 25.88V38H78.9934V15.68H85.8334V18.64C86.5268 17.6533 87.4601 16.88 88.6334 16.32C89.8068 15.7333 91.1268 15.44 92.5934 15.44ZM114.547 38.32C112.6 38.32 110.867 37.9867 109.347 37.32C107.827 36.6533 106.627 35.7467 105.747 34.6C104.867 33.4267 104.373 32.12 104.267 30.68H111.027C111.107 31.4533 111.467 32.08 112.107 32.56C112.747 33.04 113.533 33.28 114.467 33.28C115.32 33.28 115.973 33.12 116.427 32.8C116.907 32.4533 117.147 32.0133 117.147 31.48C117.147 30.84 116.813 30.3733 116.147 30.08C115.48 29.76 114.4 29.4133 112.907 29.04C111.307 28.6667 109.973 28.28 108.907 27.88C107.84 27.4533 106.92 26.8 106.147 25.92C105.373 25.0133 104.987 23.8 104.987 22.28C104.987 21 105.333 19.84 106.027 18.8C106.747 17.7333 107.787 16.8933 109.147 16.28C110.533 15.6667 112.173 15.36 114.067 15.36C116.867 15.36 119.067 16.0533 120.667 17.44C122.293 18.8267 123.227 20.6667 123.467 22.96H117.147C117.04 22.1867 116.693 21.5733 116.107 21.12C115.547 20.6667 114.8 20.44 113.867 20.44C113.067 20.44 112.453 20.6 112.027 20.92C111.6 21.2133 111.387 21.6267 111.387 22.16C111.387 22.8 111.72 23.28 112.387 23.6C113.08 23.92 114.147 24.24 115.587 24.56C117.24 24.9867 118.587 25.4133 119.627 25.84C120.667 26.24 121.573 26.9067 122.347 27.84C123.147 28.7467 123.56 29.9733 123.587 31.52C123.587 32.8267 123.213 34 122.467 35.04C121.747 36.0533 120.693 36.8533 119.307 37.44C117.947 38.0267 116.36 38.32 114.547 38.32ZM140.891 15.44C143.505 15.44 145.585 16.2933 147.131 18C148.705 19.68 149.491 22 149.491 24.96V38H142.691V25.88C142.691 24.3867 142.305 23.2267 141.531 22.4C140.758 21.5733 139.718 21.16 138.411 21.16C137.105 21.16 136.065 21.5733 135.291 22.4C134.518 23.2267 134.131 24.3867 134.131 25.88V38H127.291V15.68H134.131V18.64C134.825 17.6533 135.758 16.88 136.931 16.32C138.105 15.7333 139.425 15.44 140.891 15.44ZM152.404 26.8C152.404 24.5067 152.831 22.4933 153.684 20.76C154.564 19.0267 155.751 17.6933 157.244 16.76C158.738 15.8267 160.404 15.36 162.244 15.36C163.818 15.36 165.191 15.68 166.364 16.32C167.564 16.96 168.484 17.8 169.124 18.84V15.68H175.964V38H169.124V34.84C168.458 35.88 167.524 36.72 166.324 37.36C165.151 38 163.778 38.32 162.204 38.32C160.391 38.32 158.738 37.8533 157.244 36.92C155.751 35.96 154.564 34.6133 153.684 32.88C152.831 31.12 152.404 29.0933 152.404 26.8ZM169.124 26.84C169.124 25.1333 168.644 23.7867 167.684 22.8C166.751 21.8133 165.604 21.32 164.244 21.32C162.884 21.32 161.724 21.8133 160.764 22.8C159.831 23.76 159.364 25.0933 159.364 26.8C159.364 28.5067 159.831 29.8667 160.764 30.88C161.724 31.8667 162.884 32.36 164.244 32.36C165.604 32.36 166.751 31.8667 167.684 30.88C168.644 29.8933 169.124 28.5467 169.124 26.84ZM187.273 8.4V38H180.433V8.4H187.273Z" fill="white"/>
<path d="M34.6237 79.92C34.6237 77.1467 35.2237 74.68 36.4237 72.52C37.6237 70.3333 39.2904 68.64 41.4237 67.44C43.5837 66.2133 46.0237 65.6 48.7437 65.6C52.0771 65.6 54.9304 66.48 57.3038 68.24C59.6771 70 61.2637 72.4 62.0638 75.44H54.5437C53.9838 74.2667 53.1838 73.3733 52.1437 72.76C51.1304 72.1467 49.9704 71.84 48.6637 71.84C46.5571 71.84 44.8504 72.5733 43.5437 74.04C42.2371 75.5067 41.5837 77.4667 41.5837 79.92C41.5837 82.3733 42.2371 84.3333 43.5437 85.8C44.8504 87.2667 46.5571 88 48.6637 88C49.9704 88 51.1304 87.6933 52.1437 87.08C53.1838 86.4667 53.9838 85.5733 54.5437 84.4H62.0638C61.2637 87.44 59.6771 89.84 57.3038 91.6C54.9304 93.3333 52.0771 94.2 48.7437 94.2C46.0237 94.2 43.5837 93.6 41.4237 92.4C39.2904 91.1733 37.6237 89.48 36.4237 87.32C35.2237 85.16 34.6237 82.6933 34.6237 79.92ZM75.9325 94.32C73.7458 94.32 71.7725 93.8533 70.0125 92.92C68.2792 91.9867 66.9058 90.6533 65.8925 88.92C64.9058 87.1867 64.4125 85.16 64.4125 82.84C64.4125 80.5467 64.9192 78.5333 65.9325 76.8C66.9458 75.04 68.3325 73.6933 70.0925 72.76C71.8525 71.8267 73.8258 71.36 76.0125 71.36C78.1992 71.36 80.1725 71.8267 81.9325 72.76C83.6925 73.6933 85.0792 75.04 86.0925 76.8C87.1058 78.5333 87.6125 80.5467 87.6125 82.84C87.6125 85.1333 87.0925 87.16 86.0525 88.92C85.0392 90.6533 83.6392 91.9867 81.8525 92.92C80.0925 93.8533 78.1192 94.32 75.9325 94.32ZM75.9325 88.4C77.2392 88.4 78.3458 87.92 79.2525 86.96C80.1858 86 80.6525 84.6267 80.6525 82.84C80.6525 81.0533 80.1992 79.68 79.2925 78.72C78.4125 77.76 77.3192 77.28 76.0125 77.28C74.6792 77.28 73.5725 77.76 72.6925 78.72C71.8125 79.6533 71.3725 81.0267 71.3725 82.84C71.3725 84.6267 71.7992 86 72.6525 86.96C73.5325 87.92 74.6258 88.4 75.9325 88.4ZM97.6013 64.4V94H90.7613V64.4H97.6013ZM112.238 94.32C110.051 94.32 108.078 93.8533 106.318 92.92C104.585 91.9867 103.211 90.6533 102.198 88.92C101.211 87.1867 100.718 85.16 100.718 82.84C100.718 80.5467 101.225 78.5333 102.238 76.8C103.251 75.04 104.638 73.6933 106.398 72.76C108.158 71.8267 110.131 71.36 112.318 71.36C114.505 71.36 116.478 71.8267 118.238 72.76C119.998 73.6933 121.385 75.04 122.398 76.8C123.411 78.5333 123.918 80.5467 123.918 82.84C123.918 85.1333 123.398 87.16 122.358 88.92C121.345 90.6533 119.945 91.9867 118.158 92.92C116.398 93.8533 114.425 94.32 112.238 94.32ZM112.238 88.4C113.545 88.4 114.651 87.92 115.558 86.96C116.491 86 116.958 84.6267 116.958 82.84C116.958 81.0533 116.505 79.68 115.598 78.72C114.718 77.76 113.625 77.28 112.318 77.28C110.985 77.28 109.878 77.76 108.998 78.72C108.118 79.6533 107.678 81.0267 107.678 82.84C107.678 84.6267 108.105 86 108.958 86.96C109.838 87.92 110.931 88.4 112.238 88.4ZM133.907 75.4C134.707 74.1733 135.707 73.2133 136.907 72.52C138.107 71.8 139.44 71.44 140.907 71.44V78.68H139.027C137.32 78.68 136.04 79.0533 135.187 79.8C134.334 80.52 133.907 81.8 133.907 83.64V94H127.067V71.68H133.907V75.4Z" fill="white"/>
<circle cx="154" cy="88" r="6" fill="#EC6653"/>
</svg>
