<svg width="105" height="20" viewBox="0 0 105 20" fill="none" xmlns="http://www.w3.org/2000/svg">
<g clip-path="url(#clip0_1778_1106)">
<path d="M39.751 15.9742C40.0767 15.9742 40.3567 16.0268 40.5895 16.1335C40.8223 16.2401 41.0148 16.3778 41.1628 16.5493C41.3109 16.7194 41.4172 16.9152 41.4818 17.1352C41.5451 17.3553 41.5774 17.5713 41.5774 17.7846C41.5774 18.0114 41.5424 18.2315 41.4711 18.4448C41.3997 18.6581 41.2907 18.8498 41.1413 19.0199C40.9933 19.19 40.8048 19.3251 40.5787 19.425C40.3526 19.5235 40.0767 19.5735 39.751 19.5735H23.529C23.2033 19.5735 22.9274 19.5235 22.7013 19.425C22.4752 19.3251 22.2868 19.19 22.1387 19.0199C21.9907 18.8498 21.8803 18.6581 21.809 18.4448C21.7376 18.2315 21.7026 18.0114 21.7026 17.7846C21.7026 17.5713 21.7349 17.3553 21.7982 17.1352C21.8615 16.9152 21.9678 16.7194 22.1172 16.5493C22.2652 16.3792 22.4563 16.2401 22.6905 16.1335C22.9247 16.0268 23.2033 15.9742 23.529 15.9742H39.751ZM33.7847 2.55578C33.7699 3.19437 33.6716 3.8478 33.4872 4.51474C34.3796 4.54309 35.2638 4.7213 36.1413 5.04667C37.0189 5.37339 37.8116 5.86346 38.5195 6.51555C39.2275 7.16899 39.8183 7.99253 40.2921 8.98619C40.7658 9.97984 41.0525 11.1585 41.1521 12.522H36.8412C36.7416 11.7984 36.5438 11.1477 36.2463 10.5739C35.9489 9.99874 35.5774 9.51676 35.1319 9.12524C34.6864 8.73507 34.1804 8.44076 33.6138 8.24094C33.0471 8.04248 32.4455 7.95068 31.8089 7.96418C31.3271 8.63247 30.782 9.2427 30.1737 9.79623C29.5653 10.3498 28.9247 10.8263 28.2517 11.2233C27.5788 11.6215 26.8857 11.9334 26.171 12.1602C25.4563 12.387 24.7524 12.5085 24.0579 12.522C23.5344 12.5369 23.0808 12.3978 22.6986 12.1062C22.3164 11.8159 22.097 11.4069 22.0405 10.8817C21.9839 10.37 22.0903 9.92314 22.3594 9.53972C22.6286 9.15629 23.031 8.90788 23.5694 8.79448C24.2625 8.63787 24.9395 8.37595 25.5976 8.00603C26.2558 7.63746 26.8466 7.17169 27.3702 6.61141C27.8937 6.05112 28.3325 5.40174 28.6865 4.66325C29.0404 3.92476 29.2733 3.10796 29.3877 2.21421C29.4725 1.53242 29.7443 1.03155 30.2046 0.71293C30.6649 0.392962 31.1925 0.255255 31.786 0.297107C32.4092 0.35381 32.9045 0.573872 33.2719 0.957293C33.6393 1.34071 33.8103 1.87264 33.782 2.55443L33.7847 2.55578Z" fill="#1A1A1E"/>
<path d="M46.5922 9.90403C45.5733 9.90403 44.8156 9.69477 44.3203 9.27625C43.825 8.85772 43.5774 8.13003 43.5774 7.09318V2.49212C43.5774 1.76848 43.7752 1.2433 44.1723 0.916586C44.568 0.589868 45.0646 0.426509 45.6581 0.426509C46.2517 0.426509 46.7483 0.589868 47.144 0.916586C47.5397 1.2433 47.7389 1.76848 47.7389 2.49212V6.06982C47.7389 6.31148 47.7739 6.46404 47.8452 6.52749C47.9165 6.59095 48.0713 6.62335 48.3122 6.62335H54.8936C55.5302 6.62335 55.9771 6.79076 56.2314 7.12423C56.4858 7.4577 56.6137 7.83842 56.6137 8.26369C56.6137 8.68896 56.4831 9.08724 56.2207 9.41395C55.9582 9.74067 55.5168 9.90403 54.8936 9.90403H46.5922ZM47.2503 19.9999C46.7685 19.9999 46.3405 19.9216 45.9663 19.765C45.5908 19.6084 45.2759 19.3951 45.0215 19.1264C44.7672 18.8564 44.572 18.5472 44.4374 18.2002C44.3028 17.8519 44.2355 17.486 44.2355 17.104V16.8488C44.2355 16.082 44.4939 15.4717 45.0108 15.0168C45.5276 14.5618 46.2746 14.335 47.2503 14.335H57.93V13.7814C57.93 13.6532 57.9084 13.5654 57.8667 13.5155C57.8236 13.4655 57.7321 13.4412 57.5908 13.4412H45.6366C45.2261 13.4412 44.9287 13.313 44.7443 13.0578C44.5599 12.8026 44.4684 12.511 44.4684 12.1843C44.4684 11.8859 44.5599 11.6065 44.7443 11.3432C44.9287 11.0813 45.2248 10.949 45.6366 10.949H59.65C60.5975 10.949 61.2664 11.1123 61.6567 11.4391C62.0457 11.7658 62.2408 12.3477 62.2408 13.1861V16.5936H49.183C49.0269 16.5936 48.9098 16.6328 48.8331 16.7111C48.755 16.7894 48.716 16.8853 48.716 16.9987V17.0621C48.716 17.1755 48.755 17.2714 48.8331 17.3497C48.9112 17.428 49.0269 17.4671 49.183 17.4671H61.5827C62.0067 17.4671 62.3149 17.6022 62.506 17.8722C62.6971 18.1422 62.7927 18.4405 62.7927 18.7673C62.7927 19.0656 62.6998 19.3451 62.5167 19.6084C62.3324 19.8703 62.0215 20.0026 61.5827 20.0026H47.2503V19.9999ZM58.0147 5.64455H54.1722C53.6487 5.64455 53.2409 5.48524 52.9515 5.16527C52.6608 4.8453 52.5168 4.45918 52.5168 4.00421C52.5168 3.54923 52.6514 3.16716 52.9206 2.85394C53.1897 2.54207 53.607 2.38547 54.1736 2.38547H58.0161V2.0655C58.0161 1.38371 58.2287 0.869333 58.6527 0.521014C59.078 0.172695 59.5652 -0.00146484 60.1184 -0.00146484C60.3875 -0.00146484 60.6487 0.0444377 60.9044 0.137593C61.1587 0.230748 61.3849 0.361705 61.584 0.531815C61.7819 0.701924 61.9407 0.915236 62.0618 1.1704C62.1816 1.42556 62.2422 1.72393 62.2422 2.0655V10.2659H58.0174V5.64455H58.0147Z" fill="#1A1A1E"/>
<path d="M66.7106 3.34415C66.1723 3.34415 65.7793 3.20239 65.5316 2.91753C65.284 2.63401 65.1602 2.30729 65.1602 1.93737C65.1602 1.56745 65.28 1.24478 65.5209 0.968018C65.7618 0.691253 66.1575 0.552195 66.7093 0.552195H73.6527C74.6716 0.552195 75.3835 0.758756 75.7873 1.16918C76.1911 1.58095 76.393 2.21279 76.393 3.06468V3.72487C76.393 3.76807 76.3889 3.80992 76.3822 3.85313C76.3755 3.89633 76.3714 3.93818 76.3714 3.98138H79.3445V2.06428C79.3445 1.38249 79.5571 0.868112 79.9811 0.519793C80.4064 0.171474 80.8936 -0.00268555 81.4468 -0.00268555C81.7159 -0.00268555 81.9771 0.043217 82.2328 0.136372C82.4871 0.229527 82.7133 0.360484 82.9124 0.530594C83.1103 0.700703 83.2705 0.914015 83.3902 1.16918C83.51 1.42434 83.5706 1.72271 83.5706 2.06428V10.4779H79.3458V7.21886H75.3755C74.9502 7.84395 74.4226 8.37588 73.794 8.816C73.1642 9.25612 72.4522 9.61119 71.6595 9.88121C70.8667 10.1512 70.0108 10.3362 69.0902 10.4347C68.1696 10.5346 67.2221 10.5414 66.245 10.4563C65.8197 10.428 65.463 10.2795 65.1723 10.0095C64.8816 9.73945 64.7577 9.35603 64.8008 8.8592C64.8291 8.40558 64.9946 8.08561 65.3001 7.90065C65.6043 7.71569 65.9825 7.63738 66.4361 7.66574C67.568 7.73729 68.5774 7.70084 69.4616 7.55908C70.3459 7.41732 71.0713 7.12571 71.6379 6.68558C71.4401 6.74229 71.2557 6.77739 71.0861 6.79224C70.9165 6.80709 70.7604 6.81384 70.6191 6.81384L66.4576 6.83544C65.9192 6.83544 65.5343 6.70718 65.3001 6.45202C65.066 6.19686 64.9502 5.88364 64.9502 5.51507C64.9502 5.1465 65.0673 4.83328 65.3001 4.57812C65.5343 4.32295 65.9192 4.1947 66.4576 4.1947H72.8492C72.8492 4.15149 72.8519 4.10964 72.86 4.06644C72.8667 4.02324 72.8708 3.97463 72.8708 3.91793V3.72622C72.8708 3.56961 72.8358 3.46701 72.7644 3.41705C72.6931 3.3671 72.5801 3.3428 72.4253 3.3428H66.7133L66.7106 3.34415ZM66.9448 13.5885C66.5343 13.5885 66.2409 13.4643 66.0633 13.2159C65.8856 12.9675 65.7981 12.6934 65.7981 12.3964C65.7981 12.0994 65.8896 11.8186 66.074 11.5553C66.2584 11.292 66.5478 11.1611 66.9448 11.1611H81.0645C81.9838 11.1611 82.6325 11.3204 83.0067 11.6404C83.3822 11.9603 83.5692 12.5314 83.5692 13.3549V16.6775H70.5114C70.3553 16.6775 70.2382 16.7166 70.1615 16.7949C70.0848 16.8732 70.0444 16.9691 70.0444 17.0825V17.146C70.0444 17.2594 70.0834 17.3552 70.1615 17.4335C70.2396 17.5118 70.3553 17.551 70.5114 17.551H82.9326C83.3431 17.551 83.6446 17.6792 83.8344 17.9344C84.0255 18.1896 84.1211 18.4744 84.1211 18.7863C84.1211 19.0698 84.0295 19.3439 83.8451 19.6058C83.6608 19.8677 83.3566 20 82.9326 20H68.4939C68.0269 20 67.6124 19.9217 67.2517 19.7651C66.891 19.6085 66.5828 19.4033 66.3284 19.1481C66.074 18.893 65.8829 18.5946 65.7551 18.253C65.6272 17.9128 65.5639 17.5577 65.5639 17.1878V16.9326C65.5639 16.1807 65.8183 15.5799 66.3284 15.133C66.8385 14.6861 67.5599 14.462 68.4939 14.462H79.2584V13.9301C79.2584 13.8018 79.2368 13.7141 79.1951 13.6641C79.152 13.6142 79.0605 13.5899 78.9192 13.5899H66.9435L66.9448 13.5885Z" fill="#1A1A1E"/>
<path d="M89.8674 14.5089V12.4152C89.8674 12.0286 89.9327 11.5748 90.2561 11.2998C90.5419 11.0569 90.9554 10.9998 91.3445 10.9998H96.0046V4.04471C96.0046 3.46219 95.9503 2.99869 95.8531 2.64427C95.7606 2.31171 95.6082 2.06386 95.4054 1.88068C95.1977 1.69426 94.9013 1.54099 94.4879 1.44203L89.8674 14.5089ZM89.8674 14.5089L89.866 14.5102V14.717C89.866 15.1054 89.9315 15.5575 90.2548 15.8324C90.5405 16.0753 90.9541 16.1324 91.3431 16.1324H97.6284C97.9048 16.1324 98.1084 16.175 98.2553 16.2388C98.4265 16.3146 98.5541 16.407 98.6483 16.5109C98.7483 16.6212 98.8176 16.7426 98.8602 16.877C98.9092 17.0374 98.9333 17.1967 98.9333 17.3564C98.9333 17.6798 98.8325 17.973 98.6147 18.2506L98.6139 18.2516C98.4592 18.4496 98.1745 18.6021 97.6284 18.6021H89.794C89.1567 18.6021 88.6388 18.5411 88.2279 18.4282C87.8258 18.3178 87.5272 18.1492 87.3104 17.9357L87.3087 17.9341C87.0908 17.7216 86.9182 17.4295 86.803 17.0343C86.6857 16.6317 86.6211 16.1176 86.6211 15.4812V11.6051C86.6211 10.9682 86.6858 10.458 86.8023 10.0652L86.8024 10.0648C86.9168 9.67813 87.0901 9.38796 87.3095 9.17302L86.963 8.81931L87.3095 9.17302C87.5251 8.96177 87.8217 8.79632 88.2206 8.69242C88.6351 8.58586 89.1573 8.52743 89.794 8.52743H92.2785H92.7785V8.02743V4.93846C92.7785 4.71015 92.7211 4.49168 92.6092 4.29041C92.4028 3.91934 92.0047 3.84172 91.7052 3.84172H88.1386C87.8616 3.84172 87.6576 3.79894 87.5106 3.73486C87.3496 3.66466 87.2307 3.57343 87.1436 3.46869C87.0426 3.34704 86.9663 3.2101 86.9143 3.05449C86.8594 2.89034 86.8337 2.73051 86.8337 2.57448C86.8337 2.41341 86.8583 2.24687 86.9084 2.07888L86.9087 2.07805C86.951 1.93534 87.0214 1.80743 87.124 1.6907L87.124 1.6907L87.1254 1.68901C87.2231 1.5768 87.3535 1.47767 87.5242 1.39715C87.6659 1.33028 87.8643 1.28563 88.1386 1.28563H92.7886C93.5031 1.28563 94.0647 1.34104 94.4878 1.442L89.8674 14.5089ZM101.122 2.0655C101.122 1.49462 101.294 1.13884 101.575 0.907758C101.911 0.632884 102.286 0.498535 102.724 0.498535C102.935 0.498535 103.138 0.534145 103.339 0.607286C103.539 0.680703 103.712 0.781886 103.864 0.911506C104.005 1.03248 104.123 1.18748 104.215 1.38287C104.298 1.5596 104.348 1.78291 104.348 2.0655V19.4985H101.123V11.3513V10.8513H100.623H100.622H98.8599C98.3085 10.8513 98.0624 10.697 97.9455 10.5262C97.7621 10.2583 97.6614 9.93054 97.6614 9.52061C97.6614 9.31825 97.685 9.12934 97.7305 8.95242C97.7721 8.79024 97.8369 8.6555 97.9218 8.5425C97.9935 8.44707 98.0957 8.36217 98.2484 8.29294C98.3855 8.23144 98.5827 8.18856 98.8599 8.18856H100.622H101.122V7.68856V2.0655Z" fill="#1A1A1E" stroke="#1A1A1E"/>
<path fill-rule="evenodd" clip-rule="evenodd" d="M0.492661 12.0871C0.768569 12.4206 1.15484 12.588 1.65013 12.588H10.9678C11.463 12.588 11.8493 12.4206 12.1252 12.0871C12.4011 11.7537 12.5398 11.3945 12.5398 11.0111C12.5398 10.6277 12.4119 10.2794 12.1575 9.96751C11.9032 9.65564 11.5075 9.49903 10.9691 9.49903H10.7349V6.28314C10.7349 5.64455 10.5613 5.18688 10.2141 4.91011C9.86682 4.63334 9.3971 4.49429 8.80221 4.49429C8.20733 4.49429 7.73357 4.63334 7.3796 4.91011C7.02563 5.18688 6.84932 5.64455 6.84932 6.28314V9.49903H5.59629V6.28314C5.59629 5.64455 5.41998 5.18688 5.06601 4.91011C4.71204 4.63334 4.23829 4.49429 3.6434 4.49429C3.04851 4.49429 2.5788 4.63334 2.23156 4.91011C1.88566 5.18688 1.71204 5.64455 1.71204 6.28314V9.49903H1.64878C1.11177 9.49903 0.714733 9.65564 0.460359 9.96751C0.205985 10.2794 0.078125 10.6277 0.078125 11.0111C0.078125 11.3945 0.216752 11.7537 0.492661 12.0871ZM3.12658 19.8298C3.51554 19.9433 4.00679 20 4.60168 20H17.9974C18.6353 20 19.0916 19.8325 19.3675 19.4991C19.6434 19.1643 19.782 18.7633 19.782 18.338C19.782 17.9127 19.6474 17.532 19.3783 17.1985C19.1104 16.8651 18.6501 16.6977 17.9987 16.6977H6.46978C6.22886 16.6977 6.07274 16.6693 6.00275 16.6126C5.93142 16.5559 5.89643 16.4074 5.89643 16.1657V15.5271C5.89643 14.8021 5.69185 14.2878 5.28135 13.9826C4.87086 13.6775 4.36884 13.525 3.77395 13.525C3.17907 13.525 2.66628 13.6775 2.23425 13.9826C1.80222 14.2891 1.58687 14.8035 1.58687 15.5271V16.8907C1.58687 17.4591 1.63263 17.9424 1.7255 18.3394C1.81702 18.7363 1.97718 19.0562 2.20329 19.2979C2.4294 19.5382 2.73761 19.7164 3.12658 19.8298ZM14.0929 10.3941H15.027V10.3955V15.06H19.2316V2.06819C19.2316 1.72662 19.171 1.42825 19.0512 1.17309C18.9301 0.917925 18.7713 0.704612 18.5734 0.534502C18.3742 0.364392 18.1481 0.233434 17.8937 0.140279C17.638 0.0471234 17.3769 0.0012207 17.1077 0.0012207C16.5546 0.0012207 16.07 0.175381 15.6528 0.523702C15.2356 0.872022 15.027 1.3864 15.027 2.06819V2.32336H14.0929C13.4698 2.32336 13.031 2.48267 12.7766 2.80264C12.5223 3.12261 12.3944 3.53033 12.3944 4.02716C12.3944 4.52399 12.533 4.92496 12.8089 5.23008C13.0849 5.5352 13.5128 5.68776 14.0929 5.68776H15.027V7.02974H14.0929C13.4698 7.02974 13.031 7.1904 12.7766 7.50901C12.5223 7.82763 12.3944 8.23671 12.3944 8.73354C12.3944 9.23037 12.533 9.63134 12.8089 9.93646C13.0849 10.2416 13.5128 10.3941 14.0929 10.3941ZM11.2678 0.215637C11.8291 0.215637 12.2826 0.671964 12.2826 1.2336L12.284 1.6336V2.32484C12.2799 3.15784 11.6178 3.83288 10.7995 3.83288C9.98115 3.83288 9.31763 3.15784 9.31493 2.32484C9.31089 3.15784 8.64872 3.83288 7.83041 3.83288C7.01211 3.83288 6.34858 3.15784 6.34589 2.32484C6.34185 3.15784 5.67967 3.83288 4.86137 3.83288C4.04306 3.83288 3.37954 3.15784 3.37685 2.32484C3.37281 3.15784 2.71063 3.83288 1.89233 3.83288C1.07402 3.83288 0.410495 3.15784 0.407803 2.32484V1.10534C0.407803 0.613911 0.804842 0.215637 1.29475 0.215637H11.2678Z" fill="#1A1A1E"/>
</g>
<defs>
<clipPath id="clip0_1778_1106">
<rect width="104.8" height="20" fill="white"/>
</clipPath>
</defs>
</svg>
