<svg width="20" height="20" viewBox="0 0 20 20" fill="none" xmlns="http://www.w3.org/2000/svg">
<g id="icon_like(s)">
<path id="Vector" d="M10.0909 18C10.0909 18 1 12.9091 1 6.72728C1.00019 5.63467 1.37878 4.57585 2.0714 3.73084C2.76403 2.88582 3.72795 2.30677 4.79926 2.09214C5.87058 1.8775 6.98316 2.04052 7.94787 2.55349C8.91257 3.06646 9.66983 3.89771 10.0909 4.90591L10.0909 4.90592C10.512 3.89772 11.2692 3.06647 12.2339 2.55349C13.1986 2.04052 14.3112 1.8775 15.3825 2.09214C16.4539 2.30677 17.4178 2.88582 18.1104 3.73084C18.803 4.57585 19.1816 5.63467 19.1818 6.72728C19.1818 12.9091 10.0909 18 10.0909 18Z" fill="#FF625F" stroke="#FF625F" stroke-width="1.2" stroke-linecap="round" stroke-linejoin="round"/>
</g>
</svg>
