<svg width="24" height="24" viewBox="0 0 24 24" fill="none" xmlns="http://www.w3.org/2000/svg">
<path d="M9 21H15" stroke="#343437" stroke-width="1.6" stroke-linecap="round" stroke-linejoin="round"/>
<path d="M5.26904 9.75C5.2678 8.86051 5.44262 7.97957 5.78343 7.15796C6.12424 6.33635 6.6243 5.59031 7.25477 4.96286C7.88525 4.33541 8.63368 3.83895 9.45693 3.5021C10.2802 3.16525 11.1619 2.99467 12.0514 3.00019C15.763 3.02778 18.7317 6.11282 18.7317 9.83474V10.5C18.7317 13.8577 19.4342 15.8062 20.0529 16.8711C20.1196 16.9849 20.1551 17.1142 20.1558 17.2461C20.1565 17.378 20.1224 17.5077 20.0569 17.6222C19.9915 17.7367 19.8971 17.8319 19.7831 17.8982C19.6691 17.9646 19.5397 17.9997 19.4078 18H4.59222C4.46034 17.9997 4.33087 17.9645 4.21689 17.8982C4.1029 17.8318 4.00844 17.7366 3.94301 17.6221C3.87759 17.5076 3.84352 17.3778 3.84425 17.2459C3.84498 17.1141 3.88048 16.9847 3.94716 16.8709C4.56622 15.806 5.26904 13.8575 5.26904 10.5L5.26904 9.75Z" stroke="#343437" stroke-width="1.6" stroke-linecap="round" stroke-linejoin="round"/>
</svg>
