<svg width="28" height="29" viewBox="0 0 28 29" fill="none" xmlns="http://www.w3.org/2000/svg">
<g clip-path="url(#clip0_1211_1632)">
<path d="M5.25 14.875V23.005C5.25 23.305 5.34 23.585 5.51 23.795C5.67 24.005 5.9 24.125 6.13 24.125H21.88C22.11 24.125 22.33 24.005 22.5 23.795C22.66 23.585 22.76 23.305 22.76 23.005V14.875" stroke="#1A1A1E" stroke-width="1.6" stroke-linecap="round" stroke-linejoin="round"/>
<path d="M17.5 4.875V11.795M17.5 11.795C17.5 12.615 17.13 13.395 16.47 13.975C15.81 14.555 14.92 14.875 14 14.875C13.08 14.875 12.18 14.555 11.53 13.975C10.87 13.395 10.5 12.615 10.5 11.795M17.5 11.795C17.5 12.615 17.87 13.395 18.53 13.975C19.18 14.555 20.08 14.875 21 14.875C21.92 14.875 22.81 14.555 23.47 13.975C24.13 13.395 24.5 12.615 24.5 11.795V11.245C24.5 10.595 24.39 9.945 24.19 9.315L22.93 5.435C22.88 5.275 22.77 5.135 22.62 5.035C22.47 4.925 22.28 4.875 22.09 4.875H5.91C5.72 4.875 5.53 4.935 5.38 5.035C5.23 5.135 5.12 5.275 5.07 5.435L3.81 9.315C3.6 9.945 3.5 10.595 3.5 11.245V11.795C3.5 12.615 3.87 13.395 4.53 13.975C5.18 14.555 6.08 14.875 7 14.875C7.92 14.875 8.81 14.555 9.47 13.975C10.13 13.395 10.5 12.615 10.5 11.795M10.5 11.795V4.875" stroke="#1A1A1E" stroke-width="1.6" stroke-linecap="round" stroke-linejoin="round"/>
<path d="M14 18.125C15.66 18.125 17 19.465 17 21.125V24.125H11V21.125C11 19.465 12.34 18.125 14 18.125Z" stroke="#1A1A1E" stroke-width="1.6" stroke-linecap="square" stroke-linejoin="round"/>
</g>
<defs>
<clipPath id="clip0_1211_1632">
<rect width="22.6" height="20.85" fill="white" transform="translate(2.7002 4.07495)"/>
</clipPath>
</defs>
</svg>
