<svg width="17" height="16" viewBox="0 0 17 16" fill="none" xmlns="http://www.w3.org/2000/svg">
<path fill-rule="evenodd" clip-rule="evenodd" d="M9.06089 15.2666C9.298 15.2666 9.51288 15.127 9.60918 14.9103L11.8745 9.81339L11.8745 0.733266L4.21055 0.733266C3.74564 0.72892 3.29468 0.892264 2.94036 1.19343C2.5852 1.49532 2.351 1.9158 2.281 2.37664L1.36102 8.37656C1.31896 8.65365 1.33765 8.93657 1.41579 9.20572C1.49393 9.47487 1.62965 9.72381 1.81355 9.9353C1.99746 10.1468 2.22514 10.3158 2.48083 10.4305C2.7354 10.5448 3.01168 10.6026 3.29067 10.5999L6.46089 10.5999L6.46089 12.6666C6.46089 13.3562 6.73482 14.0175 7.22241 14.5051C7.71 14.9927 8.37133 15.2666 9.06089 15.2666ZM13.0745 0.733267L13.0745 9.2666L13.7276 9.2666C14.2403 9.2666 14.7321 9.06291 15.0946 8.70034C15.4572 8.33777 15.6609 7.84602 15.6609 7.33327L15.6609 2.6666C15.6609 2.15385 15.4572 1.6621 15.0946 1.29953C14.7321 0.936958 14.2403 0.733267 13.7276 0.733267L13.0745 0.733267Z" fill="#343437"/>
</svg>
