<svg width="358" height="52" viewBox="0 0 358 52" fill="none" xmlns="http://www.w3.org/2000/svg">
<rect width="358" height="52" rx="16" fill="#FEE500"/>
<g clip-path="url(#clip0_4295_21046)">
<path fill-rule="evenodd" clip-rule="evenodd" d="M25 17.5996C20.0292 17.5996 16 20.7126 16 24.5519C16 26.9396 17.5584 29.0446 19.9315 30.2966L18.933 33.9441C18.8448 34.2664 19.2134 34.5233 19.4965 34.3365L23.8733 31.4478C24.2427 31.4835 24.6181 31.5043 25 31.5043C29.9705 31.5043 33.9999 28.3914 33.9999 24.5519C33.9999 20.7126 29.9705 17.5996 25 17.5996Z" fill="#3A2929"/>
</g>
<path d="M145.221 20.75C145.216 22.2396 145.026 23.599 144.651 24.8281C144.281 26.0573 143.628 27.2031 142.69 28.2656C141.753 29.3281 140.466 30.2604 138.831 31.0625L138.018 29.9531C139.253 29.349 140.266 28.6719 141.057 27.9219C141.849 27.1719 142.461 26.3411 142.893 25.4297L138.315 25.8594L138.096 24.5781L143.346 24.2266C143.549 23.5286 143.68 22.7708 143.737 21.9531H138.831V20.75H145.221ZM148.846 24.9219H151.018V26.1406H148.846V33.3125H147.362V19.3281H148.846V24.9219ZM159.113 20.75C159.108 22.2396 158.918 23.599 158.543 24.8281C158.173 26.0573 157.52 27.2031 156.582 28.2656C155.645 29.3281 154.358 30.2604 152.723 31.0625L151.91 29.9531C153.145 29.349 154.158 28.6719 154.949 27.9219C155.741 27.1719 156.353 26.3411 156.785 25.4297L152.207 25.8594L151.988 24.5781L157.238 24.2266C157.442 23.5286 157.572 22.7708 157.629 21.9531H152.723V20.75H159.113ZM162.738 24.9219H164.91V26.1406H162.738V33.3125H161.254V19.3281H162.738V24.9219ZM172.099 20.1719C173.094 20.1771 173.982 20.3359 174.763 20.6484C175.55 20.9557 176.164 21.3906 176.607 21.9531C177.05 22.5104 177.271 23.1562 177.271 23.8906C177.271 24.5781 177.084 25.1901 176.709 25.7266C176.339 26.2578 175.818 26.6849 175.146 27.0078C174.48 27.3255 173.709 27.5208 172.834 27.5938V30.3438H178.537V31.5781H165.724V30.3438H171.365V27.5938C170.495 27.5208 169.727 27.3255 169.06 27.0078C168.394 26.6849 167.873 26.2578 167.498 25.7266C167.128 25.1901 166.943 24.5781 166.943 23.8906C166.943 23.1562 167.164 22.5104 167.607 21.9531C168.05 21.3906 168.662 20.9557 169.443 20.6484C170.224 20.3359 171.11 20.1771 172.099 20.1719ZM172.099 21.3906C171.386 21.3854 170.745 21.487 170.177 21.6953C169.615 21.8984 169.175 22.1927 168.857 22.5781C168.539 22.9583 168.381 23.3958 168.381 23.8906C168.381 24.4062 168.539 24.8568 168.857 25.2422C169.175 25.6276 169.615 25.9245 170.177 26.1328C170.74 26.3411 171.381 26.4479 172.099 26.4531C172.823 26.4479 173.467 26.3411 174.029 26.1328C174.597 25.9245 175.039 25.6276 175.357 25.2422C175.675 24.8568 175.834 24.4062 175.834 23.8906C175.834 23.3958 175.675 22.9583 175.357 22.5781C175.039 22.1927 174.597 21.8984 174.029 21.6953C173.461 21.487 172.818 21.3854 172.099 21.3906ZM192.429 31.6562H179.616V30.4062H185.257V27.9531H181.179V23.5H189.398V21.5312H181.148V20.3125H190.866V24.6875H182.648V26.7344H191.195V27.9531H186.726V30.4062H192.429V31.6562ZM210.291 31.6562H197.479V30.4062H203.119V27.9531H199.041V23.5H207.26V21.5312H199.01V20.3125H208.729V24.6875H200.51V26.7344H209.057V27.9531H204.588V30.4062H210.291V31.6562ZM222.465 22.25C222.465 23.0677 222.454 23.776 222.433 24.375C222.418 24.974 222.374 25.6667 222.301 26.4531C222.228 27.2344 222.111 28.0885 221.949 29.0156L220.433 28.875C220.605 28.0104 220.733 27.1927 220.816 26.4219C220.9 25.651 220.949 24.9661 220.965 24.3672C220.986 23.763 220.996 23.0573 220.996 22.25V21.9688H212.746V20.75H222.465V22.25ZM224.137 31.3438H211.371V30.1094H224.137V31.3438ZM236.872 29.5156H235.388V19.3438H236.872V29.5156ZM237.294 33.0312H227.716V28.4844H229.216V31.8281H237.294V33.0312ZM229.279 20.2812C229.977 20.2812 230.607 20.4297 231.169 20.7266C231.737 21.0234 232.182 21.4349 232.505 21.9609C232.833 22.487 232.997 23.0833 232.997 23.75C232.997 24.4271 232.833 25.0312 232.505 25.5625C232.182 26.0885 231.737 26.5 231.169 26.7969C230.607 27.0885 229.977 27.2344 229.279 27.2344C228.581 27.2344 227.948 27.0885 227.38 26.7969C226.813 26.5 226.365 26.0859 226.037 25.5547C225.708 25.0234 225.544 24.4219 225.544 23.75C225.544 23.0833 225.708 22.487 226.037 21.9609C226.365 21.4349 226.813 21.0234 227.38 20.7266C227.948 20.4297 228.581 20.2812 229.279 20.2812ZM229.279 21.5781C228.846 21.5781 228.456 21.6719 228.107 21.8594C227.763 22.0417 227.492 22.2969 227.294 22.625C227.096 22.9531 226.997 23.3281 226.997 23.75C226.997 24.1823 227.094 24.5651 227.287 24.8984C227.484 25.2266 227.755 25.4818 228.099 25.6641C228.448 25.8464 228.841 25.9375 229.279 25.9375C229.706 25.9375 230.091 25.8464 230.435 25.6641C230.779 25.4818 231.05 25.224 231.247 24.8906C231.445 24.5573 231.544 24.1771 231.544 23.75C231.544 23.3333 231.445 22.9609 231.247 22.6328C231.05 22.2995 230.776 22.0417 230.427 21.8594C230.083 21.6719 229.701 21.5781 229.279 21.5781Z" fill="#3A2929"/>
<defs>
<clipPath id="clip0_4295_21046">
<rect width="17.9999" height="18" fill="white" transform="translate(16 17)"/>
</clipPath>
</defs>
</svg>
