<svg width="28" height="28" viewBox="0 0 28 28" fill="none" xmlns="http://www.w3.org/2000/svg">
<g clip-path="url(#clip0_1750_12318)">
<path d="M5.25 14.375V22.505C5.25 22.805 5.34 23.085 5.51 23.295C5.67 23.505 5.9 23.625 6.13 23.625H21.88C22.11 23.625 22.33 23.505 22.5 23.295C22.66 23.085 22.76 22.805 22.76 22.505V14.375" stroke="#1A1A1E" stroke-width="1.6" stroke-linecap="round" stroke-linejoin="round"/>
<path d="M17.5 4.375V11.295M17.5 11.295C17.5 12.115 17.13 12.895 16.47 13.475C15.81 14.055 14.92 14.375 14 14.375C13.08 14.375 12.18 14.055 11.53 13.475C10.87 12.895 10.5 12.115 10.5 11.295M17.5 11.295C17.5 12.115 17.87 12.895 18.53 13.475C19.18 14.055 20.08 14.375 21 14.375C21.92 14.375 22.81 14.055 23.47 13.475C24.13 12.895 24.5 12.115 24.5 11.295V10.745C24.5 10.095 24.39 9.445 24.19 8.815L22.93 4.935C22.88 4.775 22.77 4.635 22.62 4.535C22.47 4.425 22.28 4.375 22.09 4.375H5.91C5.72 4.375 5.53 4.435 5.38 4.535C5.23 4.635 5.12 4.775 5.07 4.935L3.81 8.815C3.6 9.445 3.5 10.095 3.5 10.745V11.295C3.5 12.115 3.87 12.895 4.53 13.475C5.18 14.055 6.08 14.375 7 14.375C7.92 14.375 8.81 14.055 9.47 13.475C10.13 12.895 10.5 12.115 10.5 11.295M10.5 11.295V4.375" stroke="#1A1A1E" stroke-width="1.6" stroke-linecap="round" stroke-linejoin="round"/>
<path d="M14 17.625C15.66 17.625 17 18.965 17 20.625V23.625H11V20.625C11 18.965 12.34 17.625 14 17.625Z" stroke="#1A1A1E" stroke-width="1.6" stroke-linecap="square" stroke-linejoin="round"/>
</g>
<defs>
<clipPath id="clip0_1750_12318">
<rect width="22.6" height="20.85" fill="white" transform="translate(2.69922 3.57495)"/>
</clipPath>
</defs>
</svg>
