<svg width="38" height="38" viewBox="0 0 38 38" fill="none" xmlns="http://www.w3.org/2000/svg">
<rect x="0.5" y="0.5" width="37" height="37" rx="18.5" fill="white"/>
<path d="M12.8382 9.05646L8.41619 16.7159C8.10489 17.2547 8.49414 17.9285 9.11625 17.9285H17.9603C18.5824 17.9285 18.9717 17.2547 18.6604 16.7159L14.2384 9.05646C13.927 8.51764 13.1495 8.51764 12.8382 9.05646Z" fill="#3DDE8F"/>
<path d="M13.5223 16.7616C14.7331 16.7616 15.7146 15.78 15.7146 14.5693C15.7146 13.3585 14.7331 12.377 13.5223 12.377C12.3116 12.377 11.3301 13.3585 11.3301 14.5693C11.3301 15.78 12.3116 16.7616 13.5223 16.7616Z" fill="#83EEBA"/>
<rect x="13.1074" y="8.00586" width="0.860437" height="1.59796" fill="#83EEBA"/>
<path d="M27.6396 30.0002H22.0713C21.9559 30.0002 21.8565 29.9193 21.8331 29.8062L20.1631 21.7891H29.5361L27.8783 29.8057C27.8549 29.9188 27.7551 30.0002 27.6396 30.0002Z" fill="#FF625F"/>
<path d="M29.4221 21.3447H20.2766C20.0925 21.3447 19.9434 21.494 19.9434 21.6781V21.6786C19.9434 21.8628 20.0925 22.0121 20.2766 22.0121H29.4221C29.6062 22.0121 29.7553 21.8628 29.7553 21.6786V21.6781C29.7553 21.494 29.6062 21.3447 29.4221 21.3447Z" fill="#FFAAAA"/>
<path d="M18.7611 24.5439C18.7645 24.4907 18.7674 24.4386 18.7674 24.3845C18.7674 24.3304 18.763 24.2456 18.7591 24.19C18.6602 22.9021 17.585 21.8877 16.2726 21.8877C16.0237 21.8877 15.7835 21.9248 15.5565 21.9925C15.0596 21.4169 14.3254 21.0522 13.5055 21.0522C12.6856 21.0522 11.9515 21.4169 11.4546 21.9925C11.2275 21.9248 10.9874 21.8877 10.7384 21.8877C9.41967 21.8877 8.34109 22.9114 8.25047 24.2075L8.24511 24.3508C8.24511 24.3616 8.24414 24.3728 8.24414 24.3835C8.24414 24.3962 8.24511 24.4084 8.24511 24.421L8.25388 29.6105C8.25388 29.8259 8.42926 29.9999 8.6441 29.9999L18.3806 29.9834C18.5959 29.9834 18.7698 29.8079 18.7698 29.5929L18.7611 24.5439Z" fill="#FFA724"/>
<path d="M20.5088 17.7335C20.5088 17.8413 20.596 17.9285 20.7037 17.9285H28.9952C29.1029 17.9285 29.1901 17.8413 29.1901 17.7335V11.6169C29.1901 11.5545 29.1603 11.4955 29.1097 11.459L25.0725 8.53035V8.07848C25.0725 8.0351 25.0375 8 24.9941 8H24.7062C24.6628 8 24.6278 8.0351 24.6278 8.07848V8.52889L20.5892 11.459C20.5385 11.4955 20.5088 11.5545 20.5088 11.6169V17.7335Z" fill="#6DD7FF"/>
<path d="M24.8496 8.89551L21.2295 11.5219H28.4702L24.8496 8.89551Z" fill="#29BFFF"/>
<rect x="0.5" y="0.5" width="37" height="37" rx="18.5" stroke="#CDCDCF"/>
</svg>
