<svg width="28" height="28" viewBox="0 0 28 28" fill="none" xmlns="http://www.w3.org/2000/svg">
<g clip-path="url(#clip0_1750_12323)">
<path d="M22.1472 5.1035H19.6319V4.21852C19.6319 3.80863 19.2966 3.47327 18.8867 3.47327C18.4768 3.47327 18.1414 3.80863 18.1414 4.21852V5.1035H9.85051V4.21852C9.85051 3.80863 9.51514 3.47327 9.10526 3.47327C8.69537 3.47327 8.36 3.80863 8.36 4.21852V5.1035H5.84478C4.98774 5.1035 4.28906 5.80218 4.28906 6.65922V22.9616C4.28906 23.8186 4.98774 24.5173 5.84478 24.5173H22.1472C23.0042 24.5173 23.7029 23.8186 23.7029 22.9616V6.65922C23.7029 5.80218 23.0042 5.1035 22.1472 5.1035ZM11.3503 9.99422C12.552 9.99422 13.5209 10.9724 13.5209 12.1648C13.5209 13.3572 12.5427 14.3353 11.3503 14.3353C10.1579 14.3353 9.17978 13.3572 9.17978 12.1648C9.17978 10.9724 10.1579 9.99422 11.3503 9.99422ZM10.3349 19.226C10.1486 19.226 9.95298 19.1515 9.80393 19.0118C9.51514 18.723 9.51514 18.2479 9.80393 17.9591L17.1447 10.6184C17.4334 10.3296 17.9085 10.3296 18.1973 10.6184C18.4861 10.9072 18.4861 11.3823 18.1973 11.671L10.8566 19.0118C10.7075 19.1608 10.5212 19.226 10.3256 19.226H10.3349ZM16.6509 19.6359C15.4492 19.6359 14.4804 18.6578 14.4804 17.4654C14.4804 16.273 15.4585 15.2948 16.6509 15.2948C17.8433 15.2948 18.8215 16.273 18.8215 17.4654C18.8215 18.6578 17.8433 19.6359 16.6509 19.6359Z" fill="#1A1A1E"/>
<path d="M16.627 18.1916C17.0412 18.1916 17.377 17.8559 17.377 17.4417C17.377 17.0274 17.0412 16.6917 16.627 16.6917C16.2127 16.6917 15.877 17.0274 15.877 17.4417C15.877 17.8559 16.2127 18.1916 16.627 18.1916Z" fill="#1A1A1E"/>
<path d="M11.3887 12.891C11.8029 12.891 12.1387 12.5552 12.1387 12.141C12.1387 11.7268 11.8029 11.391 11.3887 11.391C10.9745 11.391 10.6387 11.7268 10.6387 12.141C10.6387 12.5552 10.9745 12.891 11.3887 12.891Z" fill="#1A1A1E"/>
</g>
<defs>
<clipPath id="clip0_1750_12323">
<rect width="19.4231" height="21.0534" fill="white" transform="translate(4.28906 3.47327)"/>
</clipPath>
</defs>
</svg>
