<svg width="16" height="16" viewBox="0 0 16 16" fill="none" xmlns="http://www.w3.org/2000/svg">
<path fill-rule="evenodd" clip-rule="evenodd" d="M7.43911 0.733398C7.202 0.733398 6.98712 0.873039 6.89082 1.08972L4.62554 6.18661V15.2667H12.2894C12.7544 15.2711 13.2053 15.1077 13.5596 14.8066C13.9148 14.5047 14.149 14.0842 14.219 13.6234L15.139 7.62344C15.181 7.34635 15.1624 7.06343 15.0842 6.79428C15.0061 6.52513 14.8704 6.27619 14.6864 6.0647C14.5025 5.85321 14.2749 5.68424 14.0192 5.56948C13.7646 5.45523 13.4883 5.39744 13.2093 5.40007H10.0391V3.3334C10.0391 2.64384 9.76518 1.98252 9.27759 1.49492C8.79 1.00733 8.12867 0.733398 7.43911 0.733398ZM3.42554 15.2667V6.7334H2.77244C2.25969 6.7334 1.76794 6.93709 1.40537 7.29966C1.0428 7.66223 0.839111 8.15398 0.839111 8.66673V13.3334C0.839111 13.8462 1.0428 14.3379 1.40537 14.7005C1.76794 15.063 2.25969 15.2667 2.77244 15.2667H3.42554Z" fill="#343437"/>
</svg>
