<svg width="28" height="28" viewBox="0 0 28 28" fill="none" xmlns="http://www.w3.org/2000/svg">
<g id="icon_tab">
<path id="Vector" d="M13.5 22.72C13.5 22.72 4 17.4 4 10.94C4.00019 9.79823 4.39582 8.69177 5.11962 7.80873C5.84342 6.92569 6.8507 6.32058 7.97023 6.09628C9.08975 5.87199 10.2524 6.04235 11.2605 6.5784C12.2686 7.11445 13.06 7.98311 13.5 9.03668L13.5 9.03669C13.94 7.98312 14.7314 7.11446 15.7395 6.5784C16.7476 6.04235 17.9102 5.87199 19.0298 6.09628C20.1493 6.32058 21.1566 6.92569 21.8804 7.80873C22.6042 8.69177 22.9998 9.79823 23 10.94C23 17.4 13.5 22.72 13.5 22.72Z" fill="#1A1A1E" stroke="#1A1A1E" stroke-width="1.6" stroke-linecap="round" stroke-linejoin="round"/>
</g>
</svg>
