<svg width="242" height="46" viewBox="0 0 242 46" fill="none" xmlns="http://www.w3.org/2000/svg">
<g id="Group 8896">
<path id="Vector" d="M91.2241 36.7353C91.9754 36.7353 92.6211 36.8564 93.1582 37.1016C93.6954 37.3469 94.1393 37.6635 94.4808 38.0578C94.8223 38.449 95.0676 38.8991 95.2166 39.4052C95.3625 39.9112 95.4371 40.4079 95.4371 40.8985C95.4371 41.42 95.3563 41.9261 95.1918 42.4166C95.0272 42.9071 94.7758 43.3479 94.4311 43.7391C94.0896 44.1303 93.655 44.4408 93.1334 44.6705C92.6118 44.8971 91.9754 45.012 91.2241 45.012H53.8038C53.0525 45.012 52.416 44.8971 51.8945 44.6705C51.3729 44.4408 50.9382 44.1303 50.5967 43.7391C50.2552 43.3479 50.0006 42.9071 49.8361 42.4166C49.6715 41.9261 49.5908 41.42 49.5908 40.8985C49.5908 40.4079 49.6653 39.9112 49.8113 39.4052C49.9572 38.8991 50.2024 38.449 50.5471 38.0578C50.8886 37.6666 51.3294 37.3469 51.8696 37.1016C52.4098 36.8564 53.0525 36.7353 53.8038 36.7353H91.2241ZM77.4612 5.87923C77.427 7.34768 77.2004 8.85028 76.7751 10.3839C78.8334 10.4491 80.8732 10.8589 82.8974 11.6071C84.9216 12.3584 86.7503 13.4854 88.3833 14.9849C90.0164 16.4875 91.3793 18.3812 92.4721 20.6662C93.565 22.9511 94.2262 25.6614 94.456 28.797H84.5118C84.2821 27.1329 83.8257 25.6365 83.1396 24.3171C82.4534 22.9946 81.5966 21.8862 80.5689 20.9859C79.5413 20.0887 78.3739 19.4119 77.0669 18.9525C75.7598 18.4961 74.3721 18.285 72.9036 18.316C71.7921 19.8528 70.5347 21.256 69.1314 22.5289C67.7281 23.8018 66.2503 24.8977 64.698 25.8104C63.1457 26.7262 61.5468 27.4434 59.8982 27.9649C58.2497 28.4865 56.6259 28.7659 55.0239 28.797C53.8162 28.8311 52.77 28.5113 51.8883 27.8408C51.0065 27.1733 50.5005 26.2326 50.3701 25.0249C50.2397 23.8483 50.485 22.8207 51.1059 21.939C51.7268 21.0573 52.6551 20.4861 53.897 20.2253C55.4959 19.8652 57.0575 19.2629 58.5757 18.4123C60.0938 17.5647 61.4568 16.4937 62.6645 15.2053C63.8722 13.9169 64.8843 12.4236 65.7008 10.7254C66.5173 9.02724 67.0544 7.14899 67.3183 5.09378C67.5139 3.52599 68.1411 2.3742 69.2028 1.64153C70.2646 0.905755 71.4816 0.589091 72.8508 0.685332C74.2882 0.815723 75.4307 1.32176 76.2783 2.20345C77.1259 3.08514 77.5202 4.30833 77.455 5.87613L77.4612 5.87923Z" fill="#1A1A1E"/>
<path id="Vector_2" d="M106.996 22.778C104.646 22.778 102.898 22.2968 101.755 21.3344C100.613 20.372 100.042 18.6987 100.042 16.3144V5.73409C100.042 4.07005 100.498 2.86239 101.414 2.11109C102.327 1.35979 103.472 0.98414 104.841 0.98414C106.21 0.98414 107.356 1.35979 108.269 2.11109C109.182 2.86239 109.641 4.07005 109.641 5.73409V13.9611C109.641 14.5168 109.722 14.8677 109.886 15.0136C110.051 15.1595 110.408 15.234 110.964 15.234H126.145C127.614 15.234 128.645 15.619 129.231 16.3858C129.818 17.1526 130.113 18.0281 130.113 19.006C130.113 19.9839 129.812 20.8998 129.207 21.6511C128.601 22.4024 127.583 22.778 126.145 22.778H106.996ZM108.514 45.9938C107.403 45.9938 106.415 45.8137 105.552 45.4536C104.686 45.0935 103.96 44.603 103.373 43.9852C102.786 43.3642 102.336 42.6533 102.025 41.8554C101.715 41.0545 101.56 40.2131 101.56 39.3346V38.7478C101.56 36.9844 102.156 35.5812 103.348 34.5349C104.54 33.4887 106.263 32.9671 108.514 32.9671H133.149V31.6943C133.149 31.3993 133.1 31.1975 133.003 31.0827C132.904 30.9678 132.693 30.9119 132.367 30.9119H104.792C103.845 30.9119 103.159 30.617 102.733 30.0302C102.308 29.4435 102.097 28.7729 102.097 28.0216C102.097 27.3355 102.308 26.6929 102.733 26.0875C103.159 25.4852 103.842 25.1809 104.792 25.1809H137.117C139.303 25.1809 140.846 25.5566 141.746 26.3079C142.643 27.0592 143.094 28.3972 143.094 30.3252V38.161H112.972C112.612 38.161 112.342 38.2511 112.165 38.4311C111.985 38.6112 111.895 38.8316 111.895 39.0924V39.2383C111.895 39.4991 111.985 39.7195 112.165 39.8996C112.345 40.0796 112.612 40.1697 112.972 40.1697H141.575C142.553 40.1697 143.264 40.4801 143.705 41.101C144.146 41.7219 144.366 42.408 144.366 43.1593C144.366 43.8454 144.152 44.4881 143.73 45.0935C143.305 45.6958 142.588 46 141.575 46H108.514V45.9938ZM133.345 12.9832H124.481C123.274 12.9832 122.333 12.6169 121.665 11.8811C120.995 11.1453 120.663 10.2574 120.663 9.21118C120.663 8.16495 120.973 7.28636 121.594 6.56611C122.215 5.84896 123.177 5.48883 124.484 5.48883H133.348V4.75305C133.348 3.18526 133.839 2.00243 134.817 1.20146C135.798 0.400486 136.922 0 138.198 0C138.818 0 139.421 0.105554 140.011 0.319768C140.597 0.533981 141.119 0.835122 141.578 1.22629C142.035 1.61747 142.401 2.10798 142.681 2.69474C142.957 3.2815 143.097 3.96761 143.097 4.75305V23.61H133.351V12.9832H133.345Z" fill="#1A1A1E"/>
<path id="Vector_3" d="M153.18 7.69616C151.938 7.69616 151.032 7.37018 150.461 6.71512C149.889 6.06317 149.604 5.31187 149.604 4.46123C149.604 3.61058 149.88 2.8686 150.436 2.23217C150.992 1.59573 151.904 1.27597 153.177 1.27597H169.194C171.544 1.27597 173.187 1.75096 174.118 2.69474C175.049 3.64163 175.515 5.09455 175.515 7.05352V8.57164C175.515 8.67099 175.506 8.76723 175.49 8.86657C175.475 8.96592 175.465 9.06216 175.465 9.1615H182.324V4.75305C182.324 3.18526 182.814 2.00243 183.792 1.20146C184.773 0.400486 185.897 0 187.173 0C187.794 0 188.396 0.105554 188.986 0.319768C189.573 0.533981 190.095 0.835122 190.554 1.22629C191.01 1.61747 191.38 2.10798 191.656 2.69474C191.932 3.2815 192.072 3.9676 192.072 4.75305V24.1006H182.327V16.6062H173.168C172.187 18.0436 170.97 19.2668 169.52 20.2789C168.067 21.2909 166.425 22.1074 164.596 22.7283C162.767 23.3493 160.793 23.7746 158.669 24.0012C156.546 24.2309 154.36 24.2465 152.106 24.0509C151.125 23.9857 150.302 23.6442 149.632 23.0233C148.961 22.4024 148.675 21.5207 148.775 20.3782C148.84 19.3351 149.222 18.5993 149.927 18.174C150.628 17.7487 151.501 17.5686 152.547 17.6338C155.158 17.7983 157.486 17.7145 159.526 17.3885C161.566 17.0626 163.239 16.392 164.546 15.3799C164.09 15.5103 163.665 15.591 163.274 15.6252C162.882 15.6593 162.522 15.6748 162.196 15.6748L152.597 15.7245C151.355 15.7245 150.467 15.4296 149.927 14.8428C149.386 14.2561 149.119 13.5358 149.119 12.6883C149.119 11.8407 149.39 11.1205 149.927 10.5337C150.467 9.94695 151.355 9.65202 152.597 9.65202H167.341C167.341 9.55267 167.347 9.45643 167.365 9.35709C167.381 9.25774 167.39 9.14598 167.39 9.01559V8.57474C167.39 8.21462 167.31 7.97867 167.145 7.8638C166.98 7.74894 166.72 7.69305 166.363 7.69305H153.187L153.18 7.69616ZM153.721 31.2534C152.774 31.2534 152.097 30.9678 151.687 30.3966C151.277 29.8253 151.075 29.1951 151.075 28.5121C151.075 27.8291 151.286 27.1834 151.712 26.578C152.137 25.9726 152.805 25.6715 153.721 25.6715H186.291C188.412 25.6715 189.908 26.0378 190.771 26.7736C191.638 27.5093 192.069 28.8226 192.069 30.7163V38.3566H161.948C161.588 38.3566 161.318 38.4466 161.141 38.6267C160.964 38.8068 160.871 39.0272 160.871 39.288V39.4339C160.871 39.6947 160.961 39.9151 161.141 40.0952C161.321 40.2752 161.588 40.3652 161.948 40.3652H190.601C191.547 40.3652 192.243 40.6602 192.681 41.2469C193.122 41.8337 193.342 42.4888 193.342 43.2059C193.342 43.8579 193.131 44.4881 192.706 45.0904C192.28 45.6926 191.579 45.9969 190.601 45.9969H157.294C156.217 45.9969 155.26 45.8168 154.428 45.4567C153.596 45.0966 152.885 44.6247 152.299 44.0379C151.712 43.4512 151.271 42.7651 150.976 41.9796C150.681 41.1973 150.535 40.3808 150.535 39.5301V38.9434C150.535 37.2141 151.122 35.8326 152.299 34.805C153.475 33.7774 155.139 33.2621 157.294 33.2621H182.125V32.0389C182.125 31.7439 182.075 31.5421 181.979 31.4273C181.88 31.3124 181.669 31.2565 181.343 31.2565H153.717L153.721 31.2534Z" fill="#1A1A1E"/>
<path id="Vector_4" d="M207.642 33.8457C207.642 34.6964 207.807 35.2583 208.133 35.5346C208.459 35.8109 209.046 35.9506 209.896 35.9506H224.395C225.146 35.9506 225.783 36.0655 226.304 36.2921C226.826 36.5218 227.261 36.823 227.602 37.1986C227.944 37.5743 228.189 37.9996 228.338 38.4715C228.484 38.9465 228.558 39.4277 228.558 39.9151C228.558 40.9272 228.232 41.8492 227.577 42.6812C226.925 43.5133 225.864 43.9293 224.395 43.9293H206.323C204.786 43.9293 203.482 43.7834 202.405 43.4884C201.328 43.1935 200.452 42.7216 199.785 42.0665C199.114 41.4146 198.627 40.5577 198.316 39.496C198.006 38.4342 197.85 37.1365 197.85 35.6029V26.6897C197.85 25.1561 198.006 23.8646 198.316 22.8215C198.627 21.7753 199.117 20.9277 199.785 20.2758C200.452 19.6238 201.328 19.1581 202.405 18.8787C203.482 18.6024 204.789 18.4627 206.323 18.4627H212.054V11.3595C212.054 11.0335 211.973 10.7231 211.809 10.4282C211.644 10.1332 211.287 9.98731 210.731 9.98731H202.504C201.753 9.98731 201.116 9.87244 200.595 9.64581C200.073 9.41918 199.648 9.10562 199.322 8.71445C198.996 8.32328 198.751 7.88243 198.586 7.39191C198.422 6.9014 198.341 6.41088 198.341 5.92347C198.341 5.43605 198.415 4.94243 198.561 4.45502C198.707 3.9645 198.952 3.52365 199.297 3.13248C199.639 2.74131 200.073 2.42154 200.595 2.17628C201.116 1.93102 201.753 1.80995 202.504 1.80995H213.231C214.929 1.80995 216.323 1.94034 217.419 2.20112C218.512 2.4619 219.384 2.88722 220.039 3.47398C220.691 4.06074 221.148 4.83067 221.411 5.77755C221.672 6.72444 221.803 7.90106 221.803 9.30431V26.4476H209.899C209.049 26.4476 208.462 26.5873 208.136 26.8636C207.81 27.1399 207.645 27.7049 207.645 28.5525V33.8426L207.642 33.8457ZM231.3 26.1061H227.236C225.767 26.1061 224.746 25.6901 224.175 24.8581C223.603 24.026 223.318 23.0388 223.318 21.8963C223.318 21.3406 223.383 20.8097 223.513 20.3037C223.644 19.7977 223.855 19.3475 224.15 18.9563C224.445 18.5652 224.842 18.2547 225.351 18.025C225.857 17.7983 226.484 17.6835 227.236 17.6835H231.3V4.75305C231.3 3.18526 231.79 2.00243 232.768 1.20146C233.749 0.400486 234.873 0 236.149 0C236.77 0 237.372 0.105554 237.962 0.319768C238.549 0.533981 239.071 0.835122 239.53 1.22629C239.987 1.61747 240.356 2.10798 240.632 2.69474C240.909 3.2815 241.048 3.9676 241.048 4.75305V45.9907H231.303V26.1061H231.3Z" fill="#1A1A1E"/>
<path id="Union" fill-rule="evenodd" clip-rule="evenodd" d="M1.90789 27.798C2.54434 28.5648 3.43537 28.9498 4.57788 28.9498H26.0713C27.2138 28.9498 28.1049 28.5648 28.7413 27.798C29.3778 27.0312 29.6975 26.2054 29.6975 25.3237C29.6975 24.442 29.4026 23.641 28.8158 22.9239C28.229 22.2067 27.3163 21.8466 26.0744 21.8466H25.5342V14.4516C25.5342 12.9831 25.1337 11.9307 24.3327 11.2943C23.5317 10.6578 22.4482 10.3381 21.0759 10.3381C19.7037 10.3381 18.6109 10.6578 17.7943 11.2943C16.9778 11.9307 16.5711 12.9831 16.5711 14.4516V21.8466H13.6807V14.4516C13.6807 12.9831 13.274 11.9307 12.4575 11.2943C11.6409 10.6578 10.5481 10.3381 9.17585 10.3381C7.8036 10.3381 6.72008 10.6578 5.91909 11.2943C5.12119 11.9307 4.72069 12.9831 4.72069 14.4516V21.8466H4.57478C3.33602 21.8466 2.42016 22.2067 1.83338 22.9239C1.2466 23.641 0.95166 24.442 0.95166 25.3237C0.95166 26.2054 1.27144 27.0312 1.90789 27.798ZM7.98367 45.6026C8.88091 45.8633 10.0141 45.9937 11.3864 45.9937H42.2869C43.7585 45.9937 44.8109 45.6088 45.4474 44.842C46.0838 44.072 46.4036 43.15 46.4036 42.1721C46.4036 41.1941 46.0931 40.3186 45.4722 39.5518C44.8544 38.785 43.7926 38.4 42.29 38.4H15.6956C15.1399 38.4 14.7797 38.3348 14.6183 38.2044C14.4537 38.0741 14.373 37.7326 14.373 37.1768V35.7084C14.373 34.0413 13.9011 32.8584 12.9542 32.1568C12.0073 31.4552 10.8493 31.1044 9.47701 31.1044C8.10475 31.1044 6.92189 31.4552 5.9253 32.1568C4.92871 32.8615 4.43196 34.0444 4.43196 35.7084V38.844C4.43196 40.151 4.53752 41.2624 4.75174 42.1752C4.96286 43.0879 5.33231 43.8237 5.85389 44.3794C6.37547 44.932 7.08643 45.3418 7.98367 45.6026ZM33.2803 23.9049H35.4349V23.908V34.6342H45.1338V4.75922C45.1338 3.97377 44.9941 3.28766 44.7178 2.70091C44.4384 2.11415 44.072 1.62363 43.6156 1.23246C43.1562 0.841286 42.6346 0.540146 42.0478 0.325932C41.4579 0.111719 40.8556 0.00616455 40.2347 0.00616455C38.9587 0.00616455 37.841 0.40665 36.8786 1.20762C35.9161 2.00859 35.4349 3.19142 35.4349 4.75922V5.34598H33.2803C31.8428 5.34598 30.8307 5.71231 30.2439 6.44809C29.6572 7.18386 29.3622 8.12144 29.3622 9.26391C29.3622 10.4064 29.682 11.3284 30.3185 12.0301C30.9549 12.7317 31.9422 13.0825 33.2803 13.0825H35.4349V16.1684H33.2803C31.8428 16.1684 30.8307 16.5378 30.2439 17.2705C29.6572 18.0032 29.3622 18.9439 29.3622 20.0863C29.3622 21.2288 29.682 22.1509 30.3185 22.8525C30.9549 23.5541 31.9422 23.9049 33.2803 23.9049ZM26.763 1.42156C28.0577 1.42156 29.1039 2.47089 29.1039 3.76238H29.107V5.35191C29.0977 7.26741 27.5702 8.81968 25.6826 8.81968C23.795 8.81968 22.2644 7.26741 22.2582 5.35191C22.2489 7.26741 20.7214 8.81968 18.8338 8.81968C16.9462 8.81968 15.4156 7.26741 15.4094 5.35191C15.4 7.26741 13.8726 8.81968 11.9849 8.81968C10.0973 8.81968 8.56673 7.26741 8.56052 5.35191C8.55121 7.26741 7.02372 8.81968 5.1361 8.81968C3.24848 8.81968 1.71789 7.26741 1.71168 5.35191V3.46745C1.71168 2.3374 2.62755 1.42156 3.75764 1.42156H26.763Z" fill="#1A1A1E"/>
</g>
</svg>
