<svg width="62" height="62" viewBox="0 0 62 62" fill="none" xmlns="http://www.w3.org/2000/svg">
<rect width="62" height="62" rx="31" fill="black"/>
<path d="M41.5389 38.3541C41.1439 39.2666 40.6764 40.1066 40.1347 40.8788C39.3963 41.9316 38.7917 42.6603 38.3258 43.0649C37.6035 43.7292 36.8297 44.0693 36.001 44.0887C35.4061 44.0887 34.6887 43.9194 33.8536 43.576C33.0157 43.2342 32.2457 43.0649 31.5417 43.0649C30.8033 43.0649 30.0114 43.2342 29.1644 43.576C28.316 43.9194 27.6326 44.0984 27.1101 44.1161C26.3154 44.15 25.5234 43.8001 24.7328 43.0649C24.2281 42.6248 23.597 41.8703 22.8408 40.8014C22.0296 39.66 21.3626 38.3364 20.8401 36.8274C20.2805 35.1974 20 33.6191 20 32.0911C20 30.3407 20.3782 28.831 21.1358 27.566C21.7312 26.5498 22.5232 25.7482 23.5146 25.1598C24.5059 24.5713 25.5771 24.2714 26.7306 24.2523C27.3618 24.2523 28.1895 24.4475 29.218 24.8312C30.2437 25.2162 30.9023 25.4114 31.191 25.4114C31.4069 25.4114 32.1385 25.1831 33.3788 24.728C34.5517 24.3059 35.5416 24.1312 36.3525 24.2C38.5499 24.3774 40.2008 25.2436 41.2987 26.8042C39.3334 27.995 38.3613 29.6628 38.3806 31.8023C38.3984 33.4688 39.0029 34.8557 40.1911 35.9568C40.7296 36.4678 41.3309 36.8628 42 37.1434C41.8549 37.5641 41.7017 37.9672 41.5389 38.3541ZM36.4992 18.5225C36.4992 19.8287 36.022 21.0483 35.0708 22.1772C33.9229 23.5192 32.5345 24.2947 31.0289 24.1723C31.0097 24.0156 30.9986 23.8507 30.9986 23.6773C30.9986 22.4234 31.5444 21.0814 32.5139 19.9841C32.9978 19.4286 33.6134 18.9666 34.3598 18.5981C35.1046 18.2351 35.8092 18.0344 36.4718 18C36.4911 18.1746 36.4992 18.3493 36.4992 18.5225Z" fill="white"/>
</svg>
