<svg width="358" height="52" viewBox="0 0 358 52" fill="none" xmlns="http://www.w3.org/2000/svg">
<rect width="358" height="52" rx="16" fill="black"/>
<path d="M31.844 31.0275C31.5718 31.6563 31.2496 32.2352 30.8762 32.7674C30.3674 33.4929 29.9507 33.9952 29.6296 34.274C29.1319 34.7318 28.5985 34.9662 28.0274 34.9796C27.6175 34.9796 27.123 34.8629 26.5475 34.6262C25.9701 34.3907 25.4394 34.274 24.9542 34.274C24.4453 34.274 23.8996 34.3907 23.3158 34.6262C22.7312 34.8629 22.2602 34.9862 21.9001 34.9985C21.3524 35.0218 20.8066 34.7807 20.2617 34.274C19.9139 33.9707 19.4789 33.4507 18.9578 32.7141C18.3987 31.9274 17.9391 31.0152 17.579 29.9753C17.1933 28.852 17 27.7642 17 26.7112C17 25.5049 17.2607 24.4644 17.7828 23.5926C18.1931 22.8923 18.7389 22.3398 19.4221 21.9343C20.1054 21.5288 20.8435 21.3221 21.6385 21.3089C22.0735 21.3089 22.6439 21.4434 23.3528 21.7079C24.0597 21.9732 24.5136 22.1077 24.7125 22.1077C24.8613 22.1077 25.3655 21.9504 26.2203 21.6368C27.0286 21.3459 27.7108 21.2254 28.2697 21.2729C29.7841 21.3951 30.9218 21.9921 31.6784 23.0676C30.324 23.8882 29.6541 25.0376 29.6674 26.5122C29.6796 27.6607 30.0963 28.6164 30.9151 29.3753C31.2862 29.7275 31.7007 29.9997 32.1618 30.193C32.0618 30.483 31.9562 30.7608 31.844 31.0275ZM28.3708 17.3601C28.3708 18.2603 28.0419 19.1008 27.3864 19.8788C26.5953 20.8037 25.6384 21.3381 24.6008 21.2538C24.5875 21.1458 24.5799 21.0321 24.5799 20.9127C24.5799 20.0485 24.9561 19.1236 25.6242 18.3674C25.9577 17.9845 26.3819 17.6662 26.8964 17.4122C27.4097 17.162 27.8952 17.0237 28.3519 17C28.3652 17.1203 28.3708 17.2407 28.3708 17.3601Z" fill="white"/>
<path d="M137.29 32L141.353 20.6875H143.337L147.415 32H145.587L144.556 29.0156H140.15L139.118 32H137.29ZM144.056 27.5781L142.384 22.75H142.306L140.642 27.5781H144.056ZM148.776 23.5156H150.401V24.8906H150.542C150.682 24.6354 150.841 24.4036 151.018 24.1953C151.195 23.987 151.445 23.8047 151.768 23.6484C152.096 23.487 152.5 23.4062 152.979 23.4062C153.667 23.4062 154.279 23.5807 154.815 23.9297C155.357 24.2786 155.779 24.7839 156.081 25.4453C156.388 26.1016 156.542 26.8802 156.542 27.7812C156.542 28.6771 156.391 29.4557 156.089 30.1172C155.786 30.7786 155.367 31.2865 154.831 31.6406C154.294 31.9948 153.682 32.1719 152.995 32.1719C152.318 32.1719 151.794 32.026 151.424 31.7344C151.055 31.4375 150.76 31.0833 150.542 30.6719H150.448V35.1875H148.776V23.5156ZM150.417 27.75C150.417 28.349 150.503 28.875 150.674 29.3281C150.846 29.776 151.096 30.125 151.424 30.375C151.758 30.625 152.156 30.75 152.62 30.75C153.094 30.75 153.497 30.6224 153.831 30.3672C154.169 30.1068 154.424 29.75 154.596 29.2969C154.768 28.8438 154.854 28.3281 154.854 27.75C154.854 27.1823 154.768 26.6797 154.596 26.2422C154.43 25.7995 154.177 25.4531 153.839 25.2031C153.505 24.9531 153.099 24.8281 152.62 24.8281C151.911 24.8281 151.367 25.0911 150.987 25.6172C150.607 26.138 150.417 26.849 150.417 27.75ZM158.262 23.5156H159.887V24.8906H160.028C160.168 24.6354 160.327 24.4036 160.504 24.1953C160.681 23.987 160.931 23.8047 161.254 23.6484C161.582 23.487 161.986 23.4062 162.465 23.4062C163.153 23.4062 163.765 23.5807 164.301 23.9297C164.843 24.2786 165.265 24.7839 165.567 25.4453C165.874 26.1016 166.028 26.8802 166.028 27.7812C166.028 28.6771 165.876 29.4557 165.574 30.1172C165.272 30.7786 164.853 31.2865 164.317 31.6406C163.78 31.9948 163.168 32.1719 162.481 32.1719C161.804 32.1719 161.28 32.026 160.91 31.7344C160.541 31.4375 160.246 31.0833 160.028 30.6719H159.934V35.1875H158.262V23.5156ZM159.903 27.75C159.903 28.349 159.988 28.875 160.16 29.3281C160.332 29.776 160.582 30.125 160.91 30.375C161.244 30.625 161.642 30.75 162.106 30.75C162.58 30.75 162.983 30.6224 163.317 30.3672C163.655 30.1068 163.91 29.75 164.082 29.2969C164.254 28.8438 164.34 28.3281 164.34 27.75C164.34 27.1823 164.254 26.6797 164.082 26.2422C163.916 25.7995 163.663 25.4531 163.324 25.2031C162.991 24.9531 162.585 24.8281 162.106 24.8281C161.397 24.8281 160.853 25.0911 160.473 25.6172C160.093 26.138 159.903 26.849 159.903 27.75ZM169.42 32H167.748V20.6875H169.42V32ZM175.171 32.1719C174.348 32.1719 173.632 31.9922 173.023 31.6328C172.419 31.2734 171.952 30.7656 171.624 30.1094C171.301 29.4531 171.14 28.6875 171.14 27.8125C171.14 26.9479 171.301 26.1823 171.624 25.5156C171.952 24.849 172.413 24.3307 173.007 23.9609C173.601 23.5911 174.286 23.4062 175.062 23.4062C175.744 23.4062 176.369 23.5547 176.937 23.8516C177.504 24.1484 177.96 24.6172 178.304 25.2578C178.653 25.8932 178.827 26.6979 178.827 27.6719V28.2656H172.796C172.812 28.7917 172.919 29.2474 173.116 29.6328C173.32 30.013 173.598 30.3021 173.952 30.5C174.307 30.6979 174.718 30.7969 175.187 30.7969C175.64 30.7969 176.023 30.7135 176.335 30.5469C176.648 30.375 176.879 30.151 177.031 29.875H178.718C178.593 30.3333 178.369 30.737 178.046 31.0859C177.723 31.4297 177.314 31.6979 176.82 31.8906C176.33 32.0781 175.781 32.1719 175.171 32.1719ZM177.187 27.0156C177.187 26.5833 177.098 26.1979 176.921 25.8594C176.749 25.5208 176.504 25.2578 176.187 25.0703C175.869 24.8776 175.499 24.7812 175.077 24.7812C174.645 24.7812 174.26 24.8828 173.921 25.0859C173.588 25.2839 173.325 25.5547 173.132 25.8984C172.939 26.237 172.83 26.6094 172.804 27.0156H177.187ZM192.86 31.6562H180.048V30.4062H185.688V27.9531H181.61V23.5H189.829V21.5312H181.579V20.3125H191.298V24.6875H183.079V26.7344H191.626V27.9531H187.157V30.4062H192.86V31.6562ZM210.723 31.6562H197.91V30.4062H203.551V27.9531H199.473V23.5H207.691V21.5312H199.441V20.3125H209.16V24.6875H200.941V26.7344H209.488V27.9531H205.019V30.4062H210.723V31.6562ZM222.896 22.25C222.896 23.0677 222.885 23.776 222.865 24.375C222.849 24.974 222.805 25.6667 222.732 26.4531C222.659 27.2344 222.542 28.0885 222.38 29.0156L220.865 28.875C221.037 28.0104 221.164 27.1927 221.247 26.4219C221.331 25.651 221.38 24.9661 221.396 24.3672C221.417 23.763 221.427 23.0573 221.427 22.25V21.9688H213.177V20.75H222.896V22.25ZM224.568 31.3438H211.802V30.1094H224.568V31.3438ZM237.304 29.5156H235.819V19.3438H237.304V29.5156ZM237.726 33.0312H228.147V28.4844H229.647V31.8281H237.726V33.0312ZM229.71 20.2812C230.408 20.2812 231.038 20.4297 231.601 20.7266C232.168 21.0234 232.614 21.4349 232.936 21.9609C233.265 22.487 233.429 23.0833 233.429 23.75C233.429 24.4271 233.265 25.0312 232.936 25.5625C232.614 26.0885 232.168 26.5 231.601 26.7969C231.038 27.0885 230.408 27.2344 229.71 27.2344C229.012 27.2344 228.379 27.0885 227.811 26.7969C227.244 26.5 226.796 26.0859 226.468 25.5547C226.14 25.0234 225.976 24.4219 225.976 23.75C225.976 23.0833 226.14 22.487 226.468 21.9609C226.796 21.4349 227.244 21.0234 227.811 20.7266C228.379 20.4297 229.012 20.2812 229.71 20.2812ZM229.71 21.5781C229.278 21.5781 228.887 21.6719 228.538 21.8594C228.194 22.0417 227.923 22.2969 227.726 22.625C227.528 22.9531 227.429 23.3281 227.429 23.75C227.429 24.1823 227.525 24.5651 227.718 24.8984C227.916 25.2266 228.186 25.4818 228.53 25.6641C228.879 25.8464 229.272 25.9375 229.71 25.9375C230.137 25.9375 230.522 25.8464 230.866 25.6641C231.21 25.4818 231.481 25.224 231.679 24.8906C231.877 24.5573 231.976 24.1771 231.976 23.75C231.976 23.3333 231.877 22.9609 231.679 22.6328C231.481 22.2995 231.207 22.0417 230.858 21.8594C230.515 21.6719 230.132 21.5781 229.71 21.5781Z" fill="white"/>
</svg>
