<svg width="28" height="28" viewBox="0 0 28 28" fill="none" xmlns="http://www.w3.org/2000/svg">
<path d="M14.4817 13.3137C16.8696 13.3137 18.8053 11.378 18.8053 8.99016C18.8053 6.60234 16.8696 4.66663 14.4817 4.66663C12.0939 4.66663 10.1582 6.60234 10.1582 8.99016C10.1582 11.378 12.0939 13.3137 14.4817 13.3137Z" fill="#1A1A1E" stroke="#1A1A1E" stroke-width="1.6" stroke-linecap="round" stroke-linejoin="round"/>
<path d="M22.1281 23.0417C22.6804 23.0417 23.1281 22.594 23.1281 22.0417V20.8799C23.1281 19.7333 22.6726 18.6335 21.8618 17.8227C21.051 17.0119 19.9512 16.5564 18.8046 16.5564H10.1575C9.01084 16.5564 7.91114 17.0119 7.10032 17.8227C6.2895 18.6335 5.83398 19.7333 5.83398 20.8799V22.0417" fill="#1A1A1E"/>
<path d="M23.1281 20.8799V22.0417C23.1281 22.594 22.6804 23.0417 22.1281 23.0417H6.83398C6.2817 23.0417 5.83398 22.594 5.83398 22.0417V20.8799C5.83398 19.7333 6.2895 18.6335 7.10032 17.8227C7.91114 17.0119 9.01084 16.5564 10.1575 16.5564H18.8046C19.9512 16.5564 21.051 17.0119 21.8618 17.8227C22.6726 18.6335 23.1281 19.7333 23.1281 20.8799Z" stroke="#1A1A1E" stroke-width="1.6" stroke-linecap="round" stroke-linejoin="round"/>
</svg>
