<svg width="28" height="28" viewBox="0 0 28 28" fill="none" xmlns="http://www.w3.org/2000/svg">
<path d="M22.1507 5.84875H5.84832C5.39814 5.84875 5.0332 6.2137 5.0332 6.66387V22.9663C5.0332 23.4164 5.39814 23.7814 5.84832 23.7814H22.1507C22.6009 23.7814 22.9658 23.4164 22.9658 22.9663V6.66387C22.9658 6.2137 22.6009 5.84875 22.1507 5.84875Z" stroke="#1A1A1E" stroke-width="1.4905" stroke-linecap="round" stroke-linejoin="round"/>
<path d="M18.8906 4.21851V5.30533" stroke="#1A1A1E" stroke-width="1.4905" stroke-linecap="round" stroke-linejoin="round"/>
<path d="M9.10938 4.21851V5.30533" stroke="#1A1A1E" stroke-width="1.4905" stroke-linecap="round" stroke-linejoin="round"/>
<path d="M17.6681 11.147L10.332 18.483" stroke="#1A1A1E" stroke-width="1.4905" stroke-linecap="round" stroke-linejoin="round"/>
<path d="M11.3503 13.5923C12.1381 13.5923 12.7767 12.9536 12.7767 12.1658C12.7767 11.378 12.1381 10.7394 11.3503 10.7394C10.5625 10.7394 9.92383 11.378 9.92383 12.1658C9.92383 12.9536 10.5625 13.5923 11.3503 13.5923Z" stroke="#1A1A1E" stroke-width="1.4905" stroke-miterlimit="10"/>
<path d="M16.6491 18.8906C17.4369 18.8906 18.0756 18.252 18.0756 17.4642C18.0756 16.6764 17.4369 16.0377 16.6491 16.0377C15.8613 16.0377 15.2227 16.6764 15.2227 17.4642C15.2227 18.252 15.8613 18.8906 16.6491 18.8906Z" stroke="#1A1A1E" stroke-width="1.4905" stroke-miterlimit="10"/>
</svg>
