<svg width="28" height="28" viewBox="0 0 28 28" fill="none" xmlns="http://www.w3.org/2000/svg">
<g clip-path="url(#clip0_1134_19432)">
<mask id="mask0_1134_19432" style="mask-type:luminance" maskUnits="userSpaceOnUse" x="4" y="4" width="21" height="21">
<path d="M25 4.375H4V24.425H25V4.375Z" fill="white"/>
</mask>
<g mask="url(#mask0_1134_19432)">
<path d="M21.5 15.975C20.19 15.975 18.95 15.525 18 14.705C17.05 15.525 15.81 15.975 14.5 15.975C13.19 15.975 11.95 15.525 11 14.705C10.05 15.525 8.80995 15.975 7.49995 15.975C6.58995 15.975 5.71995 15.745 4.94995 15.335V21.905C4.94995 22.485 5.06995 23.055 5.28995 23.485C5.58995 24.085 6.07995 24.425 6.61995 24.425H22.37C22.91 24.425 23.4 24.085 23.7 23.485C23.92 23.045 24.04 22.485 24.04 21.905V15.335C23.27 15.745 22.4 15.975 21.49 15.975H21.5ZM16.7 22.825H12.3V20.625C12.3 19.415 13.29 18.425 14.5 18.425C15.71 18.425 16.7 19.415 16.7 20.625V22.825Z" fill="#1A1A1E"/>
<path d="M24.69 8.81499L23.43 4.93499C23.32 4.60499 23.02 4.38499 22.67 4.38499H18.8V13.035C18.8 13.175 18.85 13.305 18.95 13.405C19.62 14.035 20.56 14.345 21.5 14.345C22.44 14.345 23.32 14.055 23.97 13.475C24.63 12.895 25 12.125 25 11.295V10.745C25 10.095 24.9 9.44499 24.69 8.81499Z" fill="#1A1A1E"/>
<path d="M10.21 4.375H6.41C6.07 4.375 5.76 4.585 5.65 4.915L4.31 8.815C4.11 9.445 4 10.095 4 10.745V11.295C4 12.115 4.36 12.885 5.03 13.475C5.69 14.055 6.6 14.345 7.51 14.345C8.42 14.345 9.41 14.025 10.06 13.395C10.16 13.305 10.21 13.165 10.21 13.035V4.375Z" fill="#1A1A1E"/>
<path d="M17.2 4.375H11.8V13.025C11.8 13.165 11.85 13.295 11.95 13.395C12.62 14.025 13.56 14.335 14.5 14.335C15.44 14.335 16.4 14.015 17.05 13.385C17.15 13.295 17.2 13.155 17.2 13.025V4.375Z" fill="#1A1A1E"/>
</g>
</g>
<defs>
<clipPath id="clip0_1134_19432">
<rect width="21" height="20.05" fill="white" transform="translate(4 4.375)"/>
</clipPath>
</defs>
</svg>
