<svg width="28" height="29" viewBox="0 0 28 29" fill="none" xmlns="http://www.w3.org/2000/svg">
<g clip-path="url(#clip0_1211_1222)">
<mask id="mask0_1211_1222" style="mask-type:luminance" maskUnits="userSpaceOnUse" x="4" y="4" width="21" height="21">
<path d="M25 4.875H4V24.925H25V4.875Z" fill="white"/>
</mask>
<g mask="url(#mask0_1211_1222)">
<path d="M21.5 16.475C20.19 16.475 18.95 16.025 18 15.205C17.05 16.025 15.81 16.475 14.5 16.475C13.19 16.475 11.95 16.025 11 15.205C10.05 16.025 8.80995 16.475 7.49995 16.475C6.58995 16.475 5.71995 16.245 4.94995 15.835V22.405C4.94995 22.985 5.06995 23.555 5.28995 23.985C5.58995 24.585 6.07995 24.925 6.61995 24.925H22.37C22.91 24.925 23.4 24.585 23.7 23.985C23.92 23.545 24.04 22.985 24.04 22.405V15.835C23.27 16.245 22.4 16.475 21.49 16.475H21.5ZM16.7 23.325H12.3V21.125C12.3 19.915 13.29 18.925 14.5 18.925C15.71 18.925 16.7 19.915 16.7 21.125V23.325Z" fill="#1A1A1E"/>
<path d="M24.69 9.31501L23.43 5.43501C23.32 5.10501 23.02 4.88501 22.67 4.88501H18.8V13.535C18.8 13.675 18.85 13.805 18.95 13.905C19.62 14.535 20.56 14.845 21.5 14.845C22.44 14.845 23.32 14.555 23.97 13.975C24.63 13.395 25 12.625 25 11.795V11.245C25 10.595 24.9 9.94501 24.69 9.31501Z" fill="#1A1A1E"/>
<path d="M10.21 4.875H6.41C6.07 4.875 5.76 5.085 5.65 5.415L4.31 9.315C4.11 9.945 4 10.595 4 11.245V11.795C4 12.615 4.36 13.385 5.03 13.975C5.69 14.555 6.6 14.845 7.51 14.845C8.42 14.845 9.41 14.525 10.06 13.895C10.16 13.805 10.21 13.665 10.21 13.535V4.875Z" fill="#1A1A1E"/>
<path d="M17.2 4.875H11.8V13.525C11.8 13.665 11.85 13.795 11.95 13.895C12.62 14.525 13.56 14.835 14.5 14.835C15.44 14.835 16.4 14.515 17.05 13.885C17.15 13.795 17.2 13.655 17.2 13.525V4.875Z" fill="#1A1A1E"/>
</g>
</g>
<defs>
<clipPath id="clip0_1211_1222">
<rect width="21" height="20.05" fill="white" transform="translate(4 4.875)"/>
</clipPath>
</defs>
</svg>
