<svg width="28" height="28" viewBox="0 0 28 28" fill="none" xmlns="http://www.w3.org/2000/svg">
<path d="M14.4804 13.3137C16.8682 13.3137 18.8039 11.378 18.8039 8.9902C18.8039 6.60238 16.8682 4.66667 14.4804 4.66667C12.0926 4.66667 10.1569 6.60238 10.1569 8.9902C10.1569 11.378 12.0926 13.3137 14.4804 13.3137Z" fill="#1A1A1E" stroke="#1A1A1E" stroke-width="1.6" stroke-linecap="round" stroke-linejoin="round"/>
<path d="M22.1275 23.0418C22.6798 23.0418 23.1275 22.5941 23.1275 22.0418V20.88C23.1275 19.7333 22.672 18.6336 21.8612 17.8228C21.0503 17.012 19.9506 16.5565 18.804 16.5565H10.1569C9.01023 16.5565 7.91053 17.012 7.09971 17.8228C6.28889 18.6336 5.83337 19.7333 5.83337 20.88V22.0418" fill="#1A1A1E"/>
<path d="M23.1275 20.88V22.0418C23.1275 22.5941 22.6798 23.0418 22.1275 23.0418H6.83337C6.28109 23.0418 5.83337 22.5941 5.83337 22.0418V20.88C5.83337 19.7333 6.28889 18.6336 7.09971 17.8228C7.91053 17.012 9.01023 16.5565 10.1569 16.5565H18.804C19.9506 16.5565 21.0503 17.012 21.8612 17.8228C22.672 18.6336 23.1275 19.7333 23.1275 20.88Z" stroke="#1A1A1E" stroke-width="1.6" stroke-linecap="round" stroke-linejoin="round"/>
</svg>
