<svg width="28" height="29" viewBox="0 0 28 29" fill="none" xmlns="http://www.w3.org/2000/svg">
<path d="M14.4803 13.8136C16.8681 13.8136 18.8038 11.8779 18.8038 9.49003C18.8038 7.10221 16.8681 5.1665 14.4803 5.1665C12.0924 5.1665 10.1567 7.10221 10.1567 9.49003C10.1567 11.8779 12.0924 13.8136 14.4803 13.8136Z" fill="#1A1A1E" stroke="#1A1A1E" stroke-width="1.6" stroke-linecap="round" stroke-linejoin="round"/>
<path d="M22.1274 23.5414C22.6797 23.5414 23.1274 23.0937 23.1274 22.5414V21.3797C23.1274 20.233 22.6719 19.1333 21.861 18.3225C21.0502 17.5117 19.9505 17.0562 18.8038 17.0562H10.1568C9.01011 17.0562 7.9104 17.5117 7.09958 18.3225C6.28877 19.1333 5.83325 20.233 5.83325 21.3797V22.5414" fill="#1A1A1E"/>
<path d="M23.1274 21.3797V22.5414C23.1274 23.0937 22.6797 23.5414 22.1274 23.5414H6.83325C6.28097 23.5414 5.83325 23.0937 5.83325 22.5414V21.3797C5.83325 20.233 6.28877 19.1333 7.09958 18.3225C7.9104 17.5117 9.01011 17.0562 10.1568 17.0562H18.8038C19.9505 17.0562 21.0502 17.5117 21.861 18.3225C22.6719 19.1333 23.1274 20.233 23.1274 21.3797Z" stroke="#1A1A1E" stroke-width="1.6" stroke-linecap="round" stroke-linejoin="round"/>
</svg>
